<?xml version="1.0" encoding="utf-8"?>
<!-- Generator: Adobe Illustrator 26.0.2, SVG Export Plug-In . SVG Version: 6.00 Build 0)  -->
<svg version="1.1" id="Calque_1" xmlns="http://www.w3.org/2000/svg" xmlns:xlink="http://www.w3.org/1999/xlink" x="0px" y="0px"
	 viewBox="0 0 19 12" style="enable-background:new 0 0 19 12;" xml:space="preserve">
<g>
	
		<linearGradient id="SVGID_00000058560901606572151800000018127703542352830864_" gradientUnits="userSpaceOnUse" x1="14.0869" y1="-2.836" x2="-3.6049" y2="18.2483">
		<stop  offset="0" style="stop-color:#AEBF72"/>
		<stop  offset="0.5" style="stop-color:#457F82"/>
		<stop  offset="1" style="stop-color:#2F5556"/>
	</linearGradient>
	<path style="fill:url(#SVGID_00000058560901606572151800000018127703542352830864_);" d="M10.69,10.53
		c0.08-0.08,0.16-0.18,0.22-0.27l6.47-6.47C18,3.16,18,2.13,17.37,1.5c-0.63-0.63-1.65-0.63-2.29,0L9.51,7.07l-5.6-5.6
		c-0.63-0.63-1.65-0.63-2.29,0C1.31,1.79,1.16,2.2,1.16,2.62c0,0.41,0.16,0.83,0.47,1.14l6.5,6.5c0.06,0.1,0.13,0.19,0.22,0.27
		c0.32,0.32,0.75,0.48,1.17,0.47C9.94,11.01,10.36,10.85,10.69,10.53z"/>
</g>
</svg>
