<?xml version="1.0" encoding="utf-8"?>
<!-- Generator: Adobe Illustrator 26.0.2, SVG Export Plug-In . SVG Version: 6.00 Build 0)  -->
<svg version="1.1" id="Layer_1" xmlns="http://www.w3.org/2000/svg" xmlns:xlink="http://www.w3.org/1999/xlink" x="0px" y="0px"
	 viewBox="0 0 127.91 87.38" style="enable-background:new 0 0 127.91 87.38;" xml:space="preserve">
<path style="fill:#B0C172;" d="M40.13,87.38c-0.11,0-0.22,0-0.32-0.01c-3.09-0.11-5.94-1.72-7.6-4.33
	C21.8,66.72,3.58,51.52,3.4,51.37c-3.99-3.31-4.55-9.23-1.24-13.23c3.31-3.99,9.23-4.55,13.22-1.25
	c0.68,0.56,13.88,11.55,25.24,25.75c11.51-13.01,35.45-37.14,72.81-61.16c4.36-2.81,10.18-1.54,12.98,2.82
	c2.81,4.36,1.54,10.18-2.82,12.98C72.89,49.9,47.93,83.23,47.69,83.56C45.91,85.96,43.1,87.38,40.13,87.38z"/>
</svg>
