<?xml version="1.0" encoding="utf-8"?>
<!-- Generator: Adobe Illustrator 26.0.2, SVG Export Plug-In . SVG Version: 6.00 Build 0)  -->
<svg version="1.1" xmlns="http://www.w3.org/2000/svg" xmlns:xlink="http://www.w3.org/1999/xlink" x="0px" y="0px"
	 viewBox="0 0 37.35 76.55" style="enable-background:new 0 0 37.35 76.55;" xml:space="preserve">
<g id="Calque_1">
</g>
<g id="Calque_2">
</g>
<g id="Calque_3">
</g>
<g id="Calque_4">
</g>
<g id="Calque_5">
</g>
<g id="Calque_6">
</g>
<g id="Calque_7">
</g>
<g id="Calque_8">
</g>
<g id="Calque_9">
</g>
<g id="Calque_10">
</g>
<g id="Calque_11">
</g>
<g id="Calque_12">
</g>
<g id="Calque_13">
</g>
<g id="Calque_14">
</g>
<g id="Calque_15">
</g>
<g id="Calque_16">
</g>
<g id="Calque_17">
</g>
<g id="Calque_18">
</g>
<g id="Calque_19">
</g>
<g id="Calque_20">
</g>
<g id="Calque_21">
</g>
<g id="Calque_22">
</g>
<g id="Calque_23">
</g>
<g id="Calque_24">
</g>
<g id="Calque_25">
</g>
<g id="Calque_26">
</g>
<g id="Calque_27">
</g>
<g id="Calque_28">
</g>
<g id="Calque_29">
</g>
<g id="Calque_30">
</g>
<g id="Calque_31">
</g>
<g id="Calque_32">
</g>
<g id="Calque_33">
</g>
<g id="Calque_34">
</g>
<g id="Calque_35">
</g>
<g id="Calque_36">
</g>
<g id="Calque_37">
</g>
<g id="Calque_38">
</g>
<g id="Calque_39">
</g>
<g id="Calque_40">
</g>
<g id="Calque_41">
</g>
<g id="Calque_42">
</g>
<g id="Calque_43">
</g>
<g id="Calque_44">
	<g>
		<path d="M36.62,1.7l-1.88,9.29c-1.98-0.49-4.02-0.73-6.1-0.73c-2.5,0-4.23,1.15-5.16,3.44c-0.94,2.3-1.41,6.75-1.41,13.36
			c3.1,0,7.36-0.14,12.78-0.42l-0.42,10.38c-5.43-0.21-9.55-0.31-12.36-0.31c0,13.11,0.26,26.12,0.78,39.02H9.07
			C9.6,63,9.86,49.99,9.86,36.71c-2.05,0-5.1,0.1-9.13,0.31l0.42-10.33c3.69,0.24,6.59,0.37,8.71,0.37
			c0-17.5,5.88-26.24,17.63-26.24C31,0.81,34.05,1.11,36.62,1.7z"/>
	</g>
</g>
<g id="Calque_45">
</g>
</svg>
