<?xml version="1.0" encoding="utf-8"?>
<!-- Generator: Adobe Illustrator 26.0.2, SVG Export Plug-In . SVG Version: 6.00 Build 0)  -->
<svg version="1.1" xmlns="http://www.w3.org/2000/svg" xmlns:xlink="http://www.w3.org/1999/xlink" x="0px" y="0px"
	 viewBox="0 0 778 340" style="enable-background:new 0 0 778 340;" xml:space="preserve">
<g id="Calque_1">
	<g>
		<path style="fill:#B0C172;" d="M7.9,314.04h7.32v1.43H9.36v4.58h5.86v1.43H9.36v7.17H7.9V314.04z"/>
		<path style="fill:#B0C172;" d="M18.02,313.39c0.32,0,0.59,0.11,0.81,0.34c0.22,0.23,0.34,0.5,0.34,0.81c0,0.31-0.11,0.58-0.34,0.8
			c-0.22,0.23-0.5,0.34-0.81,0.34c-0.31,0-0.58-0.11-0.8-0.34s-0.34-0.49-0.34-0.8c0-0.32,0.11-0.59,0.34-0.81
			S17.71,313.39,18.02,313.39z M17.33,317.84h1.39v10.81h-1.39V317.84z"/>
		<path style="fill:#B0C172;" d="M21.7,328.65v-14.98h1.39v6.03c0.58-0.72,1.23-1.25,1.95-1.6c0.72-0.35,1.51-0.53,2.37-0.53
			c1.53,0,2.83,0.55,3.91,1.66c1.08,1.11,1.62,2.46,1.62,4.04c0,1.56-0.55,2.9-1.64,4c-1.09,1.11-2.4,1.66-3.94,1.66
			c-0.88,0-1.68-0.19-2.39-0.57c-0.71-0.38-1.35-0.94-1.9-1.7v1.99H21.7z M27.26,327.58c0.77,0,1.49-0.19,2.14-0.57
			s1.17-0.92,1.56-1.6c0.39-0.69,0.58-1.42,0.58-2.19c0-0.77-0.19-1.5-0.58-2.2c-0.39-0.7-0.91-1.24-1.57-1.62
			c-0.66-0.39-1.36-0.58-2.11-0.58c-0.76,0-1.48,0.19-2.17,0.58s-1.21,0.91-1.58,1.56c-0.37,0.66-0.55,1.39-0.55,2.22
			c0,1.25,0.41,2.3,1.23,3.14C25.05,327.16,26.06,327.58,27.26,327.58z"/>
		<path style="fill:#B0C172;" d="M34.96,317.84h1.42v1.58c0.42-0.62,0.87-1.09,1.34-1.4s0.96-0.46,1.47-0.46
			c0.38,0,0.79,0.12,1.23,0.37l-0.73,1.17c-0.29-0.13-0.54-0.19-0.74-0.19c-0.46,0-0.91,0.19-1.34,0.57s-0.76,0.97-0.98,1.77
			c-0.17,0.62-0.26,1.86-0.26,3.73v3.66h-1.42V317.84z"/>
		<path style="fill:#B0C172;" d="M50.7,325.06l1.17,0.62c-0.38,0.75-0.83,1.36-1.33,1.83c-0.5,0.46-1.07,0.82-1.7,1.06
			s-1.34,0.36-2.14,0.36c-1.76,0-3.14-0.58-4.14-1.73c-0.99-1.16-1.49-2.46-1.49-3.92c0-1.37,0.42-2.59,1.26-3.67
			c1.07-1.36,2.5-2.05,4.29-2.05c1.84,0,3.31,0.7,4.41,2.1c0.78,0.99,1.18,2.22,1.19,3.7h-9.72c0.03,1.26,0.43,2.28,1.2,3.09
			c0.78,0.8,1.73,1.2,2.87,1.2c0.55,0,1.09-0.1,1.61-0.29s0.96-0.45,1.33-0.76C49.88,326.28,50.28,325.77,50.7,325.06z M50.7,322.15
			c-0.19-0.74-0.46-1.33-0.81-1.78c-0.35-0.44-0.82-0.8-1.41-1.07c-0.58-0.27-1.2-0.41-1.84-0.41c-1.06,0-1.97,0.34-2.73,1.02
			c-0.56,0.5-0.98,1.24-1.26,2.23H50.7z"/>
		<path style="fill:#B0C172;" d="M60.68,314.04h2.91c1.67,0,2.79,0.07,3.38,0.22c0.83,0.21,1.52,0.63,2.05,1.27s0.79,1.44,0.79,2.41
			c0,0.97-0.26,1.78-0.77,2.41s-1.23,1.06-2.14,1.28c-0.66,0.16-1.9,0.24-3.72,0.24h-1.04v6.79h-1.46V314.04z M62.14,315.47v4.96
			l2.47,0.03c1,0,1.73-0.09,2.2-0.27c0.46-0.18,0.83-0.48,1.09-0.88c0.26-0.41,0.4-0.86,0.4-1.36c0-0.49-0.13-0.94-0.4-1.34
			s-0.61-0.7-1.05-0.87c-0.43-0.17-1.14-0.26-2.13-0.26H62.14z"/>
		<path style="fill:#B0C172;" d="M71.97,317.84h1.42v1.58c0.42-0.62,0.87-1.09,1.34-1.4s0.96-0.46,1.47-0.46
			c0.38,0,0.79,0.12,1.23,0.37l-0.73,1.17c-0.29-0.13-0.54-0.19-0.74-0.19c-0.46,0-0.91,0.19-1.34,0.57
			c-0.43,0.38-0.76,0.97-0.98,1.77c-0.17,0.62-0.26,1.86-0.26,3.73v3.66h-1.42V317.84z"/>
		<path style="fill:#B0C172;" d="M83.73,317.56c1.66,0,3.05,0.6,4.14,1.81c0.99,1.1,1.49,2.4,1.49,3.9c0,1.51-0.53,2.83-1.58,3.96
			c-1.05,1.13-2.4,1.69-4.05,1.69c-1.66,0-3.01-0.56-4.06-1.69c-1.05-1.13-1.58-2.45-1.58-3.96c0-1.5,0.5-2.79,1.49-3.89
			C80.68,318.17,82.06,317.56,83.73,317.56z M83.73,318.92c-1.16,0-2.15,0.43-2.98,1.28c-0.83,0.85-1.25,1.89-1.25,3.1
			c0,0.78,0.19,1.51,0.57,2.19c0.38,0.68,0.89,1.2,1.54,1.56c0.64,0.37,1.35,0.55,2.12,0.55s1.48-0.18,2.12-0.55
			c0.65-0.37,1.16-0.89,1.54-1.56c0.38-0.68,0.57-1.4,0.57-2.19c0-1.21-0.42-2.24-1.25-3.1C85.87,319.35,84.88,318.92,83.73,318.92z
			"/>
		<path style="fill:#B0C172;" d="M102.42,320.09l-1.1,0.69c-0.95-1.26-2.25-1.9-3.9-1.9c-1.32,0-2.41,0.42-3.28,1.27
			c-0.87,0.85-1.3,1.88-1.3,3.09c0,0.79,0.2,1.53,0.6,2.22c0.4,0.69,0.95,1.23,1.65,1.62c0.7,0.38,1.48,0.58,2.35,0.58
			c1.59,0,2.88-0.63,3.89-1.9l1.1,0.73c-0.52,0.78-1.21,1.38-2.08,1.81c-0.87,0.43-1.86,0.64-2.97,0.64c-1.71,0-3.13-0.54-4.25-1.63
			s-1.69-2.41-1.69-3.96c0-1.05,0.26-2.02,0.79-2.92s1.25-1.6,2.17-2.1c0.92-0.5,1.95-0.75,3.09-0.75c0.72,0,1.41,0.11,2.07,0.33
			c0.67,0.22,1.23,0.5,1.69,0.85S102.1,319.54,102.42,320.09z"/>
		<path style="fill:#B0C172;" d="M114.2,325.06l1.17,0.62c-0.38,0.75-0.83,1.36-1.33,1.83c-0.5,0.46-1.07,0.82-1.7,1.06
			s-1.34,0.36-2.14,0.36c-1.76,0-3.14-0.58-4.14-1.73c-0.99-1.16-1.49-2.46-1.49-3.92c0-1.37,0.42-2.59,1.26-3.67
			c1.07-1.36,2.5-2.05,4.29-2.05c1.84,0,3.31,0.7,4.41,2.1c0.78,0.99,1.18,2.22,1.19,3.7H106c0.03,1.26,0.43,2.28,1.2,3.09
			c0.78,0.8,1.73,1.2,2.87,1.2c0.55,0,1.09-0.1,1.61-0.29c0.52-0.19,0.96-0.45,1.33-0.76C113.38,326.28,113.77,325.77,114.2,325.06z
			 M114.2,322.15c-0.19-0.74-0.46-1.33-0.81-1.78c-0.35-0.44-0.82-0.8-1.41-1.07c-0.58-0.27-1.2-0.41-1.84-0.41
			c-1.06,0-1.97,0.34-2.73,1.02c-0.56,0.5-0.98,1.24-1.26,2.23H114.2z"/>
		<path style="fill:#B0C172;" d="M123.75,319.02l-0.89,0.92c-0.74-0.72-1.47-1.08-2.18-1.08c-0.45,0-0.84,0.15-1.16,0.45
			c-0.32,0.3-0.48,0.65-0.48,1.04c0,0.35,0.13,0.69,0.4,1c0.27,0.32,0.82,0.71,1.67,1.14c1.04,0.54,1.74,1.05,2.11,1.55
			c0.36,0.5,0.55,1.07,0.55,1.7c0,0.89-0.31,1.64-0.94,2.25c-0.62,0.62-1.4,0.92-2.34,0.92c-0.62,0-1.22-0.14-1.79-0.41
			c-0.57-0.27-1.04-0.65-1.41-1.12l0.87-0.99c0.71,0.8,1.46,1.2,2.26,1.2c0.56,0,1.03-0.18,1.42-0.54c0.39-0.36,0.59-0.78,0.59-1.26
			c0-0.4-0.13-0.75-0.39-1.06c-0.26-0.3-0.84-0.69-1.75-1.15c-0.98-0.5-1.64-1-1.99-1.49c-0.35-0.49-0.53-1.05-0.53-1.68
			c0-0.82,0.28-1.5,0.84-2.05c0.56-0.54,1.27-0.81,2.12-0.81C121.74,317.56,122.74,318.05,123.75,319.02z"/>
		<path style="fill:#B0C172;" d="M131.65,319.02l-0.89,0.92c-0.74-0.72-1.47-1.08-2.18-1.08c-0.45,0-0.84,0.15-1.16,0.45
			c-0.32,0.3-0.48,0.65-0.48,1.04c0,0.35,0.13,0.69,0.4,1c0.27,0.32,0.82,0.71,1.67,1.14c1.04,0.54,1.74,1.05,2.11,1.55
			c0.36,0.5,0.55,1.07,0.55,1.7c0,0.89-0.31,1.64-0.94,2.25c-0.62,0.62-1.4,0.92-2.34,0.92c-0.62,0-1.22-0.14-1.79-0.41
			c-0.57-0.27-1.04-0.65-1.41-1.12l0.87-0.99c0.71,0.8,1.46,1.2,2.26,1.2c0.56,0,1.03-0.18,1.42-0.54c0.39-0.36,0.59-0.78,0.59-1.26
			c0-0.4-0.13-0.75-0.39-1.06c-0.26-0.3-0.84-0.69-1.75-1.15c-0.98-0.5-1.64-1-1.99-1.49c-0.35-0.49-0.53-1.05-0.53-1.68
			c0-0.82,0.28-1.5,0.84-2.05c0.56-0.54,1.27-0.81,2.12-0.81C129.64,317.56,130.64,318.05,131.65,319.02z"/>
		<path style="fill:#B0C172;" d="M134.59,313.39c0.32,0,0.59,0.11,0.81,0.34c0.22,0.23,0.34,0.5,0.34,0.81
			c0,0.31-0.11,0.58-0.34,0.8c-0.22,0.23-0.5,0.34-0.81,0.34c-0.31,0-0.58-0.11-0.8-0.34s-0.34-0.49-0.34-0.8
			c0-0.32,0.11-0.59,0.34-0.81S134.28,313.39,134.59,313.39z M133.9,317.84h1.39v10.81h-1.39V317.84z"/>
		<path style="fill:#B0C172;" d="M138.18,317.84h1.39v1.94c0.56-0.74,1.17-1.3,1.85-1.66s1.41-0.55,2.21-0.55
			c0.81,0,1.52,0.21,2.15,0.62s1.09,0.96,1.39,1.66c0.3,0.7,0.45,1.78,0.45,3.25v5.56h-1.39v-5.16c0-1.24-0.05-2.08-0.15-2.49
			c-0.16-0.72-0.47-1.25-0.93-1.61c-0.46-0.36-1.05-0.54-1.79-0.54c-0.84,0-1.59,0.28-2.26,0.83c-0.67,0.56-1.1,1.24-1.32,2.07
			c-0.13,0.54-0.2,1.52-0.2,2.94v3.96h-1.39V317.84z"/>
		<path style="fill:#B0C172;" d="M159.91,317.84h1.39v8.61c0,1.52-0.13,2.63-0.4,3.33c-0.36,0.99-1,1.76-1.9,2.29
			c-0.9,0.54-1.98,0.8-3.25,0.8c-0.93,0-1.76-0.13-2.5-0.39c-0.74-0.26-1.34-0.61-1.8-1.06c-0.46-0.44-0.89-1.09-1.28-1.94h1.51
			c0.41,0.72,0.94,1.24,1.59,1.59c0.65,0.34,1.46,0.52,2.42,0.52c0.95,0,1.75-0.18,2.4-0.53c0.65-0.35,1.12-0.8,1.4-1.33
			c0.28-0.53,0.42-1.4,0.42-2.59v-0.56c-0.52,0.66-1.16,1.17-1.92,1.52c-0.76,0.35-1.56,0.53-2.41,0.53c-0.99,0-1.93-0.25-2.8-0.74
			c-0.88-0.49-1.55-1.16-2.03-1.99c-0.48-0.83-0.72-1.75-0.72-2.75c0-1,0.25-1.93,0.75-2.8c0.5-0.86,1.18-1.55,2.06-2.05
			c0.88-0.5,1.8-0.75,2.78-0.75c0.81,0,1.56,0.17,2.26,0.5c0.7,0.33,1.37,0.89,2.02,1.65V317.84z M155.81,318.9
			c-0.79,0-1.52,0.19-2.2,0.57c-0.68,0.38-1.21,0.91-1.59,1.58c-0.38,0.67-0.58,1.4-0.58,2.18c0,1.19,0.4,2.17,1.19,2.94
			c0.79,0.77,1.82,1.16,3.09,1.16c1.28,0,2.31-0.38,3.08-1.15c0.78-0.77,1.17-1.78,1.17-3.03c0-0.81-0.18-1.54-0.54-2.18
			s-0.86-1.14-1.52-1.51C157.27,319.09,156.56,318.9,155.81,318.9z"/>
		<path style="fill:#B0C172;" d="M180.68,317.84v10.81h-1.37v-1.86c-0.58,0.71-1.24,1.24-1.96,1.6c-0.73,0.36-1.52,0.54-2.38,0.54
			c-1.53,0-2.84-0.55-3.92-1.66c-1.08-1.11-1.62-2.46-1.62-4.05c0-1.56,0.55-2.89,1.64-3.99s2.41-1.66,3.94-1.66
			c0.89,0,1.69,0.19,2.41,0.57c0.72,0.38,1.35,0.94,1.89,1.7v-1.99H180.68z M175.12,318.9c-0.77,0-1.49,0.19-2.14,0.57
			c-0.66,0.38-1.18,0.91-1.56,1.6c-0.39,0.69-0.58,1.42-0.58,2.18c0,0.76,0.2,1.49,0.59,2.18c0.39,0.69,0.91,1.24,1.57,1.62
			c0.66,0.39,1.36,0.58,2.12,0.58c0.76,0,1.48-0.19,2.16-0.58c0.68-0.38,1.21-0.9,1.57-1.56c0.37-0.65,0.55-1.39,0.55-2.21
			c0-1.25-0.41-2.3-1.24-3.14C177.34,319.32,176.32,318.9,175.12,318.9z"/>
		<path style="fill:#B0C172;" d="M183.81,317.84h1.39v1.94c0.56-0.74,1.17-1.3,1.85-1.66s1.41-0.55,2.21-0.55
			c0.81,0,1.52,0.21,2.15,0.62s1.09,0.96,1.39,1.66c0.3,0.7,0.45,1.78,0.45,3.25v5.56h-1.39v-5.16c0-1.24-0.05-2.08-0.15-2.49
			c-0.16-0.72-0.47-1.25-0.93-1.61c-0.46-0.36-1.05-0.54-1.79-0.54c-0.84,0-1.59,0.28-2.26,0.83c-0.67,0.56-1.1,1.24-1.32,2.07
			c-0.13,0.54-0.2,1.52-0.2,2.94v3.96h-1.39V317.84z"/>
		<path style="fill:#B0C172;" d="M207,313.67v14.98h-1.37v-1.86c-0.58,0.71-1.24,1.24-1.96,1.6s-1.52,0.54-2.38,0.54
			c-1.53,0-2.84-0.55-3.92-1.66c-1.08-1.11-1.62-2.46-1.62-4.05c0-1.56,0.55-2.89,1.64-3.99s2.41-1.66,3.94-1.66
			c0.89,0,1.69,0.19,2.41,0.57c0.72,0.38,1.35,0.94,1.89,1.7v-6.16H207z M201.44,318.9c-0.77,0-1.49,0.19-2.14,0.57
			c-0.66,0.38-1.18,0.91-1.56,1.6c-0.39,0.69-0.58,1.42-0.58,2.18c0,0.76,0.2,1.49,0.59,2.18c0.39,0.69,0.91,1.24,1.57,1.62
			c0.66,0.39,1.36,0.58,2.12,0.58c0.76,0,1.48-0.19,2.16-0.58c0.68-0.38,1.21-0.9,1.57-1.56c0.37-0.65,0.55-1.39,0.55-2.21
			c0-1.25-0.41-2.3-1.24-3.14C203.66,319.32,202.65,318.9,201.44,318.9z"/>
		<path style="fill:#B0C172;" d="M215.35,328.65l2.09-14.61h0.24l5.94,11.99l5.88-11.99h0.23l2.1,14.61h-1.43l-1.44-10.45
			l-5.17,10.45h-0.37l-5.23-10.53l-1.44,10.53H215.35z"/>
		<path style="fill:#B0C172;" d="M245.24,317.84v10.81h-1.37v-1.86c-0.58,0.71-1.24,1.24-1.96,1.6c-0.73,0.36-1.52,0.54-2.38,0.54
			c-1.53,0-2.84-0.55-3.92-1.66c-1.08-1.11-1.62-2.46-1.62-4.05c0-1.56,0.55-2.89,1.64-3.99s2.41-1.66,3.94-1.66
			c0.89,0,1.69,0.19,2.41,0.57c0.72,0.38,1.35,0.94,1.89,1.7v-1.99H245.24z M239.69,318.9c-0.77,0-1.49,0.19-2.14,0.57
			c-0.66,0.38-1.18,0.91-1.56,1.6c-0.39,0.69-0.58,1.42-0.58,2.18c0,0.76,0.2,1.49,0.59,2.18c0.39,0.69,0.91,1.24,1.57,1.62
			c0.66,0.39,1.36,0.58,2.12,0.58c0.76,0,1.48-0.19,2.16-0.58c0.68-0.38,1.21-0.9,1.57-1.56c0.37-0.65,0.55-1.39,0.55-2.21
			c0-1.25-0.41-2.3-1.24-3.14C241.9,319.32,240.89,318.9,239.69,318.9z"/>
		<path style="fill:#B0C172;" d="M248.37,317.84h1.39v1.94c0.56-0.74,1.17-1.3,1.85-1.66c0.68-0.37,1.41-0.55,2.21-0.55
			c0.81,0,1.52,0.21,2.15,0.62c0.63,0.41,1.09,0.96,1.39,1.66c0.3,0.7,0.45,1.78,0.45,3.25v5.56h-1.39v-5.16
			c0-1.24-0.05-2.08-0.15-2.49c-0.16-0.72-0.47-1.25-0.93-1.61s-1.05-0.54-1.79-0.54c-0.84,0-1.59,0.28-2.26,0.83
			c-0.67,0.56-1.1,1.24-1.32,2.07c-0.13,0.54-0.2,1.52-0.2,2.94v3.96h-1.39V317.84z"/>
		<path style="fill:#B0C172;" d="M260.6,317.84h1.39v5.05c0,1.23,0.07,2.08,0.2,2.54c0.2,0.66,0.58,1.19,1.14,1.57
			c0.56,0.38,1.23,0.58,2,0.58c0.78,0,1.43-0.19,1.97-0.56c0.54-0.37,0.91-0.87,1.12-1.48c0.14-0.42,0.21-1.3,0.21-2.65v-5.05h1.42
			v5.3c0,1.49-0.17,2.61-0.52,3.37s-0.87,1.35-1.57,1.77c-0.7,0.43-1.57,0.64-2.63,0.64s-1.93-0.21-2.64-0.64s-1.23-1.02-1.58-1.79
			s-0.52-1.92-0.52-3.45V317.84z"/>
		<path style="fill:#B0C172;" d="M277.6,313.67v1.36c-0.51-0.22-0.95-0.33-1.31-0.33c-0.27,0-0.5,0.05-0.68,0.16
			c-0.18,0.11-0.29,0.24-0.34,0.38c-0.05,0.14-0.07,0.52-0.07,1.14l0,1.46h2.26v1.2h-2.26l-0.01,9.61h-1.39v-9.61h-1.42v-1.2h1.42
			v-1.69c0-0.77,0.07-1.33,0.21-1.66c0.14-0.33,0.38-0.6,0.73-0.8c0.34-0.2,0.75-0.3,1.24-0.3
			C276.43,313.39,276.97,313.48,277.6,313.67z"/>
		<path style="fill:#B0C172;" d="M290.3,317.84v10.81h-1.37v-1.86c-0.58,0.71-1.24,1.24-1.96,1.6s-1.52,0.54-2.38,0.54
			c-1.53,0-2.84-0.55-3.92-1.66c-1.08-1.11-1.62-2.46-1.62-4.05c0-1.56,0.55-2.89,1.64-3.99s2.41-1.66,3.94-1.66
			c0.89,0,1.69,0.19,2.41,0.57c0.72,0.38,1.35,0.94,1.89,1.7v-1.99H290.3z M284.74,318.9c-0.77,0-1.49,0.19-2.14,0.57
			c-0.66,0.38-1.18,0.91-1.56,1.6c-0.39,0.69-0.58,1.42-0.58,2.18c0,0.76,0.2,1.49,0.59,2.18c0.39,0.69,0.91,1.24,1.57,1.62
			c0.66,0.39,1.36,0.58,2.12,0.58c0.76,0,1.48-0.19,2.16-0.58c0.68-0.38,1.21-0.9,1.57-1.56c0.37-0.65,0.55-1.39,0.55-2.21
			c0-1.25-0.41-2.3-1.24-3.14C286.96,319.32,285.95,318.9,284.74,318.9z"/>
		<path style="fill:#B0C172;" d="M303.92,320.09l-1.1,0.69c-0.95-1.26-2.25-1.9-3.9-1.9c-1.32,0-2.41,0.42-3.28,1.27
			c-0.87,0.85-1.3,1.88-1.3,3.09c0,0.79,0.2,1.53,0.6,2.22c0.4,0.69,0.95,1.23,1.65,1.62c0.7,0.38,1.48,0.58,2.35,0.58
			c1.59,0,2.88-0.63,3.89-1.9l1.1,0.73c-0.52,0.78-1.21,1.38-2.08,1.81c-0.87,0.43-1.86,0.64-2.98,0.64c-1.71,0-3.13-0.54-4.25-1.63
			s-1.69-2.41-1.69-3.96c0-1.05,0.26-2.02,0.79-2.92s1.25-1.6,2.17-2.1c0.92-0.5,1.95-0.75,3.09-0.75c0.72,0,1.41,0.11,2.07,0.33
			c0.67,0.22,1.23,0.5,1.69,0.85C303.2,319.1,303.6,319.54,303.92,320.09z"/>
		<path style="fill:#B0C172;" d="M307.8,313.83h1.39v4.01h2.21v1.2h-2.21v9.61h-1.39v-9.61h-1.9v-1.2h1.9V313.83z"/>
		<path style="fill:#B0C172;" d="M313.31,317.84h1.39v5.05c0,1.23,0.07,2.08,0.2,2.54c0.2,0.66,0.58,1.19,1.14,1.57
			c0.56,0.38,1.23,0.58,2,0.58c0.78,0,1.43-0.19,1.97-0.56c0.54-0.37,0.91-0.87,1.12-1.48c0.14-0.42,0.21-1.3,0.21-2.65v-5.05h1.42
			v5.3c0,1.49-0.17,2.61-0.52,3.37c-0.35,0.75-0.87,1.35-1.57,1.77s-1.57,0.64-2.63,0.64c-1.05,0-1.93-0.21-2.64-0.64
			c-0.71-0.43-1.23-1.02-1.58-1.79c-0.35-0.76-0.52-1.92-0.52-3.45V317.84z"/>
		<path style="fill:#B0C172;" d="M325.33,317.84h1.42v1.58c0.42-0.62,0.87-1.09,1.34-1.4c0.47-0.31,0.96-0.46,1.47-0.46
			c0.38,0,0.79,0.12,1.23,0.37l-0.73,1.17c-0.29-0.13-0.54-0.19-0.74-0.19c-0.46,0-0.91,0.19-1.34,0.57
			c-0.43,0.38-0.76,0.97-0.98,1.77c-0.17,0.62-0.26,1.86-0.26,3.73v3.66h-1.42V317.84z"/>
		<path style="fill:#B0C172;" d="M332.45,313.39c0.32,0,0.59,0.11,0.81,0.34c0.22,0.23,0.34,0.5,0.34,0.81
			c0,0.31-0.11,0.58-0.34,0.8c-0.22,0.23-0.49,0.34-0.81,0.34c-0.31,0-0.58-0.11-0.8-0.34c-0.22-0.23-0.34-0.49-0.34-0.8
			c0-0.32,0.11-0.59,0.34-0.81C331.88,313.5,332.14,313.39,332.45,313.39z M331.76,317.84h1.39v10.81h-1.39V317.84z"/>
		<path style="fill:#B0C172;" d="M336.04,317.84h1.39v1.94c0.56-0.74,1.17-1.3,1.85-1.66c0.68-0.37,1.41-0.55,2.21-0.55
			c0.81,0,1.52,0.21,2.15,0.62s1.09,0.96,1.39,1.66c0.3,0.7,0.45,1.78,0.45,3.25v5.56h-1.39v-5.16c0-1.24-0.05-2.08-0.15-2.49
			c-0.16-0.72-0.47-1.25-0.93-1.61c-0.46-0.36-1.05-0.54-1.79-0.54c-0.84,0-1.59,0.28-2.26,0.83c-0.67,0.56-1.1,1.24-1.32,2.07
			c-0.13,0.54-0.2,1.52-0.2,2.94v3.96h-1.39V317.84z"/>
		<path style="fill:#B0C172;" d="M357.77,317.84h1.39v8.61c0,1.52-0.13,2.63-0.4,3.33c-0.36,0.99-1,1.76-1.9,2.29
			c-0.9,0.54-1.98,0.8-3.25,0.8c-0.93,0-1.76-0.13-2.5-0.39c-0.74-0.26-1.34-0.61-1.8-1.06c-0.46-0.44-0.89-1.09-1.28-1.94h1.51
			c0.41,0.72,0.94,1.24,1.59,1.59c0.65,0.34,1.46,0.52,2.42,0.52c0.95,0,1.75-0.18,2.4-0.53c0.65-0.35,1.12-0.8,1.4-1.33
			c0.28-0.53,0.42-1.4,0.42-2.59v-0.56c-0.52,0.66-1.16,1.17-1.92,1.52c-0.76,0.35-1.56,0.53-2.41,0.53c-0.99,0-1.93-0.25-2.8-0.74
			c-0.88-0.49-1.55-1.16-2.03-1.99c-0.48-0.83-0.72-1.75-0.72-2.75c0-1,0.25-1.93,0.75-2.8c0.5-0.86,1.18-1.55,2.06-2.05
			c0.88-0.5,1.8-0.75,2.78-0.75c0.81,0,1.56,0.17,2.26,0.5c0.7,0.33,1.37,0.89,2.02,1.65V317.84z M353.67,318.9
			c-0.79,0-1.52,0.19-2.2,0.57c-0.68,0.38-1.21,0.91-1.59,1.58c-0.38,0.67-0.58,1.4-0.58,2.18c0,1.19,0.4,2.17,1.19,2.94
			c0.79,0.77,1.82,1.16,3.09,1.16c1.28,0,2.31-0.38,3.08-1.15c0.78-0.77,1.17-1.78,1.17-3.03c0-0.81-0.18-1.54-0.54-2.18
			c-0.36-0.64-0.86-1.14-1.52-1.51C355.13,319.09,354.42,318.9,353.67,318.9z"/>
		<path style="fill:#B0C172;" d="M366.49,325.93l1.24-0.74c0.87,1.61,1.88,2.41,3.03,2.41c0.49,0,0.95-0.11,1.38-0.34
			c0.43-0.23,0.76-0.53,0.98-0.92c0.23-0.38,0.34-0.79,0.34-1.22c0-0.49-0.17-0.97-0.5-1.44c-0.46-0.65-1.29-1.43-2.5-2.34
			c-1.22-0.92-1.98-1.59-2.27-2c-0.52-0.69-0.77-1.43-0.77-2.23c0-0.64,0.15-1.22,0.46-1.74c0.3-0.52,0.73-0.94,1.29-1.24
			s1.15-0.45,1.8-0.45c0.69,0,1.33,0.17,1.93,0.51c0.6,0.34,1.23,0.97,1.9,1.88l-1.19,0.9c-0.55-0.73-1.02-1.21-1.41-1.44
			s-0.81-0.35-1.27-0.35c-0.59,0-1.07,0.18-1.45,0.54s-0.56,0.8-0.56,1.32c0,0.32,0.07,0.63,0.2,0.92s0.37,0.62,0.73,0.97
			c0.19,0.19,0.82,0.67,1.89,1.46c1.26,0.93,2.13,1.76,2.6,2.49c0.47,0.73,0.71,1.46,0.71,2.2c0,1.06-0.4,1.98-1.21,2.76
			s-1.78,1.17-2.94,1.17c-0.89,0-1.69-0.24-2.41-0.71C367.76,327.83,367.1,327.04,366.49,325.93z"/>
		<path style="fill:#B0C172;" d="M387,325.06l1.17,0.62c-0.38,0.75-0.83,1.36-1.33,1.83c-0.5,0.46-1.07,0.82-1.7,1.06
			c-0.63,0.24-1.34,0.36-2.14,0.36c-1.76,0-3.14-0.58-4.14-1.73c-0.99-1.16-1.49-2.46-1.49-3.92c0-1.37,0.42-2.59,1.26-3.67
			c1.07-1.36,2.5-2.05,4.29-2.05c1.84,0,3.31,0.7,4.41,2.1c0.78,0.99,1.18,2.22,1.19,3.7h-9.72c0.03,1.26,0.43,2.28,1.2,3.09
			c0.78,0.8,1.73,1.2,2.87,1.2c0.55,0,1.09-0.1,1.61-0.29c0.52-0.19,0.96-0.45,1.33-0.76C386.18,326.28,386.58,325.77,387,325.06z
			 M387,322.15c-0.19-0.74-0.46-1.33-0.81-1.78c-0.35-0.44-0.82-0.8-1.41-1.07c-0.58-0.27-1.2-0.41-1.84-0.41
			c-1.06,0-1.97,0.34-2.73,1.02c-0.56,0.5-0.98,1.24-1.26,2.23H387z"/>
		<path style="fill:#B0C172;" d="M401.61,320.09l-1.1,0.69c-0.95-1.26-2.25-1.9-3.9-1.9c-1.32,0-2.41,0.42-3.28,1.27
			c-0.87,0.85-1.3,1.88-1.3,3.09c0,0.79,0.2,1.53,0.6,2.22c0.4,0.69,0.95,1.23,1.65,1.62c0.7,0.38,1.48,0.58,2.35,0.58
			c1.59,0,2.88-0.63,3.89-1.9l1.1,0.73c-0.52,0.78-1.21,1.38-2.08,1.81c-0.87,0.43-1.86,0.64-2.98,0.64c-1.71,0-3.13-0.54-4.25-1.63
			s-1.69-2.41-1.69-3.96c0-1.05,0.26-2.02,0.79-2.92s1.25-1.6,2.17-2.1c0.92-0.5,1.95-0.75,3.09-0.75c0.72,0,1.41,0.11,2.07,0.33
			c0.67,0.22,1.23,0.5,1.69,0.85C400.89,319.1,401.29,319.54,401.61,320.09z"/>
		<path style="fill:#B0C172;" d="M405.5,313.83h1.39v4.01h2.21v1.2h-2.21v9.61h-1.39v-9.61h-1.9v-1.2h1.9V313.83z"/>
		<path style="fill:#B0C172;" d="M416.29,317.56c1.66,0,3.05,0.6,4.14,1.81c0.99,1.1,1.49,2.4,1.49,3.9c0,1.51-0.53,2.83-1.58,3.96
			c-1.05,1.13-2.4,1.69-4.05,1.69c-1.66,0-3.01-0.56-4.06-1.69c-1.05-1.13-1.58-2.45-1.58-3.96c0-1.5,0.5-2.79,1.49-3.89
			C413.24,318.17,414.62,317.56,416.29,317.56z M416.29,318.92c-1.16,0-2.15,0.43-2.98,1.28c-0.83,0.85-1.25,1.89-1.25,3.1
			c0,0.78,0.19,1.51,0.57,2.19c0.38,0.68,0.89,1.2,1.54,1.56c0.64,0.37,1.35,0.55,2.12,0.55s1.48-0.18,2.12-0.55
			c0.65-0.37,1.16-0.89,1.54-1.56c0.38-0.68,0.57-1.4,0.57-2.19c0-1.21-0.42-2.24-1.25-3.1
			C418.43,319.35,417.44,318.92,416.29,318.92z"/>
		<path style="fill:#B0C172;" d="M423.97,317.84h1.42v1.58c0.42-0.62,0.87-1.09,1.34-1.4c0.47-0.31,0.96-0.46,1.47-0.46
			c0.38,0,0.79,0.12,1.23,0.37l-0.73,1.17c-0.29-0.13-0.54-0.19-0.74-0.19c-0.46,0-0.91,0.19-1.34,0.57
			c-0.43,0.38-0.76,0.97-0.98,1.77c-0.17,0.62-0.26,1.86-0.26,3.73v3.66h-1.42V317.84z"/>
		<path style="fill:#B0C172;" d="M436.49,314.04h8.37v1.43h-6.91v4.58h6.85v1.43h-6.85v5.74h6.85v1.43h-8.31V314.04z"/>
		<path style="fill:#B0C172;" d="M457.94,313.67v14.98h-1.37v-1.86c-0.58,0.71-1.24,1.24-1.96,1.6s-1.52,0.54-2.38,0.54
			c-1.53,0-2.84-0.55-3.92-1.66c-1.08-1.11-1.62-2.46-1.62-4.05c0-1.56,0.55-2.89,1.64-3.99s2.41-1.66,3.94-1.66
			c0.89,0,1.69,0.19,2.41,0.57c0.72,0.38,1.35,0.94,1.89,1.7v-6.16H457.94z M452.39,318.9c-0.77,0-1.49,0.19-2.14,0.57
			c-0.66,0.38-1.18,0.91-1.56,1.6c-0.39,0.69-0.58,1.42-0.58,2.18c0,0.76,0.2,1.49,0.59,2.18c0.39,0.69,0.91,1.24,1.57,1.62
			c0.66,0.39,1.36,0.58,2.12,0.58c0.76,0,1.48-0.19,2.16-0.58c0.68-0.38,1.21-0.9,1.57-1.56c0.37-0.65,0.55-1.39,0.55-2.21
			c0-1.25-0.41-2.3-1.24-3.14C454.6,319.32,453.59,318.9,452.39,318.9z"/>
		<path style="fill:#B0C172;" d="M460.91,317.84h1.39v5.05c0,1.23,0.07,2.08,0.2,2.54c0.2,0.66,0.58,1.19,1.14,1.57
			c0.56,0.38,1.23,0.58,2,0.58s1.43-0.19,1.97-0.56c0.54-0.37,0.91-0.87,1.12-1.48c0.14-0.42,0.21-1.3,0.21-2.65v-5.05h1.42v5.3
			c0,1.49-0.17,2.61-0.52,3.37s-0.87,1.35-1.57,1.77s-1.57,0.64-2.63,0.64s-1.93-0.21-2.64-0.64s-1.23-1.02-1.58-1.79
			s-0.52-1.92-0.52-3.45V317.84z"/>
		<path style="fill:#B0C172;" d="M483.95,320.09l-1.1,0.69c-0.95-1.26-2.25-1.9-3.9-1.9c-1.32,0-2.41,0.42-3.28,1.27
			c-0.87,0.85-1.3,1.88-1.3,3.09c0,0.79,0.2,1.53,0.6,2.22c0.4,0.69,0.95,1.23,1.65,1.62c0.7,0.38,1.48,0.58,2.35,0.58
			c1.59,0,2.88-0.63,3.89-1.9l1.1,0.73c-0.52,0.78-1.21,1.38-2.08,1.81c-0.87,0.43-1.86,0.64-2.97,0.64c-1.71,0-3.13-0.54-4.25-1.63
			s-1.69-2.41-1.69-3.96c0-1.05,0.26-2.02,0.79-2.92s1.25-1.6,2.17-2.1c0.92-0.5,1.95-0.75,3.09-0.75c0.72,0,1.41,0.11,2.07,0.33
			c0.67,0.22,1.23,0.5,1.69,0.85C483.23,319.1,483.62,319.54,483.95,320.09z"/>
		<path style="fill:#B0C172;" d="M497.39,317.84v10.81h-1.37v-1.86c-0.58,0.71-1.24,1.24-1.96,1.6s-1.52,0.54-2.38,0.54
			c-1.53,0-2.84-0.55-3.92-1.66c-1.08-1.11-1.62-2.46-1.62-4.05c0-1.56,0.55-2.89,1.64-3.99s2.41-1.66,3.94-1.66
			c0.89,0,1.69,0.19,2.41,0.57c0.72,0.38,1.35,0.94,1.89,1.7v-1.99H497.39z M491.83,318.9c-0.77,0-1.49,0.19-2.14,0.57
			c-0.66,0.38-1.18,0.91-1.56,1.6c-0.39,0.69-0.58,1.42-0.58,2.18c0,0.76,0.2,1.49,0.59,2.18c0.39,0.69,0.91,1.24,1.57,1.62
			c0.66,0.39,1.36,0.58,2.12,0.58c0.76,0,1.48-0.19,2.16-0.58c0.68-0.38,1.21-0.9,1.57-1.56c0.37-0.65,0.55-1.39,0.55-2.21
			c0-1.25-0.41-2.3-1.24-3.14C494.05,319.32,493.03,318.9,491.83,318.9z"/>
		<path style="fill:#B0C172;" d="M501.73,313.83h1.39v4.01h2.21v1.2h-2.21v9.61h-1.39v-9.61h-1.9v-1.2h1.9V313.83z"/>
		<path style="fill:#B0C172;" d="M507.89,313.39c0.32,0,0.59,0.11,0.81,0.34c0.22,0.23,0.34,0.5,0.34,0.81
			c0,0.31-0.11,0.58-0.34,0.8c-0.22,0.23-0.49,0.34-0.81,0.34c-0.31,0-0.58-0.11-0.8-0.34c-0.22-0.23-0.34-0.49-0.34-0.8
			c0-0.32,0.11-0.59,0.34-0.81C507.32,313.5,507.58,313.39,507.89,313.39z M507.2,317.84h1.39v10.81h-1.39V317.84z"/>
		<path style="fill:#B0C172;" d="M516.6,317.56c1.66,0,3.05,0.6,4.14,1.81c0.99,1.1,1.49,2.4,1.49,3.9c0,1.51-0.53,2.83-1.58,3.96
			c-1.05,1.13-2.4,1.69-4.05,1.69c-1.66,0-3.01-0.56-4.06-1.69c-1.05-1.13-1.58-2.45-1.58-3.96c0-1.5,0.5-2.79,1.49-3.89
			C513.54,318.17,514.93,317.56,516.6,317.56z M516.59,318.92c-1.16,0-2.15,0.43-2.98,1.28c-0.83,0.85-1.25,1.89-1.25,3.1
			c0,0.78,0.19,1.51,0.57,2.19c0.38,0.68,0.89,1.2,1.54,1.56c0.64,0.37,1.35,0.55,2.12,0.55s1.48-0.18,2.12-0.55
			c0.65-0.37,1.16-0.89,1.54-1.56c0.38-0.68,0.57-1.4,0.57-2.19c0-1.21-0.42-2.24-1.25-3.1
			C518.74,319.35,517.74,318.92,516.59,318.92z"/>
		<path style="fill:#B0C172;" d="M524.8,317.84h1.39v1.94c0.56-0.74,1.17-1.3,1.85-1.66c0.68-0.37,1.41-0.55,2.21-0.55
			c0.81,0,1.52,0.21,2.15,0.62s1.09,0.96,1.39,1.66c0.3,0.7,0.45,1.78,0.45,3.25v5.56h-1.39v-5.16c0-1.24-0.05-2.08-0.15-2.49
			c-0.16-0.72-0.47-1.25-0.93-1.61c-0.46-0.36-1.05-0.54-1.79-0.54c-0.84,0-1.59,0.28-2.26,0.83c-0.67,0.56-1.1,1.24-1.32,2.07
			c-0.13,0.54-0.2,1.52-0.2,2.94v3.96h-1.39V317.84z"/>
		<path style="fill:#B0C172;" d="M553.61,317.84v10.81h-1.37v-1.86c-0.58,0.71-1.24,1.24-1.96,1.6c-0.73,0.36-1.52,0.54-2.38,0.54
			c-1.53,0-2.84-0.55-3.92-1.66c-1.08-1.11-1.62-2.46-1.62-4.05c0-1.56,0.55-2.89,1.64-3.99s2.41-1.66,3.94-1.66
			c0.89,0,1.69,0.19,2.41,0.57c0.72,0.38,1.35,0.94,1.89,1.7v-1.99H553.61z M548.05,318.9c-0.77,0-1.49,0.19-2.14,0.57
			c-0.66,0.38-1.18,0.91-1.56,1.6c-0.39,0.69-0.58,1.42-0.58,2.18c0,0.76,0.2,1.49,0.59,2.18c0.39,0.69,0.91,1.24,1.57,1.62
			c0.66,0.39,1.36,0.58,2.12,0.58c0.76,0,1.48-0.19,2.16-0.58c0.68-0.38,1.21-0.9,1.57-1.56c0.37-0.65,0.55-1.39,0.55-2.21
			c0-1.25-0.41-2.3-1.23-3.14C550.27,319.32,549.26,318.9,548.05,318.9z"/>
		<path style="fill:#B0C172;" d="M556.74,317.84h1.39v1.94c0.56-0.74,1.17-1.3,1.85-1.66c0.68-0.37,1.41-0.55,2.21-0.55
			c0.81,0,1.52,0.21,2.15,0.62s1.09,0.96,1.39,1.66c0.3,0.7,0.45,1.78,0.45,3.25v5.56h-1.39v-5.16c0-1.24-0.05-2.08-0.15-2.49
			c-0.16-0.72-0.47-1.25-0.93-1.61c-0.46-0.36-1.05-0.54-1.79-0.54c-0.84,0-1.59,0.28-2.26,0.83c-0.67,0.56-1.1,1.24-1.32,2.07
			c-0.13,0.54-0.2,1.52-0.2,2.94v3.96h-1.39V317.84z"/>
		<path style="fill:#B0C172;" d="M579.93,313.67v14.98h-1.37v-1.86c-0.58,0.71-1.24,1.24-1.96,1.6c-0.73,0.36-1.52,0.54-2.38,0.54
			c-1.53,0-2.84-0.55-3.92-1.66c-1.08-1.11-1.62-2.46-1.62-4.05c0-1.56,0.55-2.89,1.64-3.99s2.41-1.66,3.94-1.66
			c0.89,0,1.69,0.19,2.41,0.57c0.72,0.38,1.35,0.94,1.89,1.7v-6.16H579.93z M574.38,318.9c-0.77,0-1.49,0.19-2.14,0.57
			c-0.66,0.38-1.18,0.91-1.56,1.6c-0.39,0.69-0.58,1.42-0.58,2.18c0,0.76,0.2,1.49,0.59,2.18c0.39,0.69,0.91,1.24,1.57,1.62
			c0.66,0.39,1.36,0.58,2.12,0.58c0.76,0,1.48-0.19,2.16-0.58c0.68-0.38,1.21-0.9,1.57-1.56c0.37-0.65,0.55-1.39,0.55-2.21
			c0-1.25-0.41-2.3-1.23-3.14C576.59,319.32,575.58,318.9,574.38,318.9z"/>
		<path style="fill:#B0C172;" d="M587.49,315.47v-1.43h8.01v1.43h-3.26v13.18h-1.49v-13.18H587.49z"/>
		<path style="fill:#B0C172;" d="M596.85,317.84h1.42v1.58c0.42-0.62,0.87-1.09,1.34-1.4c0.47-0.31,0.96-0.46,1.47-0.46
			c0.38,0,0.79,0.12,1.23,0.37l-0.73,1.17c-0.29-0.13-0.54-0.19-0.74-0.19c-0.46,0-0.91,0.19-1.34,0.57s-0.76,0.97-0.98,1.77
			c-0.17,0.62-0.26,1.86-0.26,3.73v3.66h-1.42V317.84z"/>
		<path style="fill:#B0C172;" d="M614.26,317.84v10.81h-1.37v-1.86c-0.58,0.71-1.24,1.24-1.96,1.6c-0.73,0.36-1.52,0.54-2.38,0.54
			c-1.53,0-2.84-0.55-3.92-1.66c-1.08-1.11-1.62-2.46-1.62-4.05c0-1.56,0.55-2.89,1.64-3.99s2.41-1.66,3.94-1.66
			c0.89,0,1.69,0.19,2.41,0.57c0.72,0.38,1.35,0.94,1.89,1.7v-1.99H614.26z M608.71,318.9c-0.77,0-1.49,0.19-2.14,0.57
			c-0.66,0.38-1.18,0.91-1.56,1.6c-0.39,0.69-0.58,1.42-0.58,2.18c0,0.76,0.2,1.49,0.59,2.18c0.39,0.69,0.91,1.24,1.57,1.62
			c0.66,0.39,1.36,0.58,2.12,0.58c0.76,0,1.48-0.19,2.16-0.58c0.68-0.38,1.21-0.9,1.57-1.56c0.37-0.65,0.55-1.39,0.55-2.21
			c0-1.25-0.41-2.3-1.24-3.14C610.92,319.32,609.91,318.9,608.71,318.9z"/>
		<path style="fill:#B0C172;" d="M617.87,313.39c0.32,0,0.59,0.11,0.81,0.34c0.22,0.23,0.34,0.5,0.34,0.81
			c0,0.31-0.11,0.58-0.34,0.8c-0.22,0.23-0.49,0.34-0.81,0.34c-0.31,0-0.58-0.11-0.8-0.34s-0.34-0.49-0.34-0.8
			c0-0.32,0.11-0.59,0.34-0.81S617.56,313.39,617.87,313.39z M617.18,317.84h1.39v10.81h-1.39V317.84z"/>
		<path style="fill:#B0C172;" d="M621.46,317.84h1.39v1.94c0.56-0.74,1.17-1.3,1.85-1.66s1.41-0.55,2.21-0.55
			c0.81,0,1.52,0.21,2.15,0.62s1.09,0.96,1.39,1.66s0.45,1.78,0.45,3.25v5.56h-1.39v-5.16c0-1.24-0.05-2.08-0.15-2.49
			c-0.16-0.72-0.47-1.25-0.93-1.61s-1.05-0.54-1.79-0.54c-0.84,0-1.59,0.28-2.26,0.83c-0.67,0.56-1.1,1.24-1.32,2.07
			c-0.13,0.54-0.2,1.52-0.2,2.94v3.96h-1.39V317.84z"/>
		<path style="fill:#B0C172;" d="M634.35,313.39c0.32,0,0.59,0.11,0.81,0.34c0.22,0.23,0.34,0.5,0.34,0.81
			c0,0.31-0.11,0.58-0.34,0.8c-0.22,0.23-0.49,0.34-0.81,0.34c-0.31,0-0.58-0.11-0.8-0.34s-0.34-0.49-0.34-0.8
			c0-0.32,0.11-0.59,0.34-0.81S634.04,313.39,634.35,313.39z M633.66,317.84h1.39v10.81h-1.39V317.84z"/>
		<path style="fill:#B0C172;" d="M637.94,317.84h1.39v1.94c0.56-0.74,1.17-1.3,1.85-1.66s1.41-0.55,2.21-0.55
			c0.81,0,1.52,0.21,2.15,0.62s1.09,0.96,1.39,1.66c0.3,0.7,0.45,1.78,0.45,3.25v5.56h-1.39v-5.16c0-1.24-0.05-2.08-0.15-2.49
			c-0.16-0.72-0.47-1.25-0.93-1.61c-0.46-0.36-1.05-0.54-1.79-0.54c-0.84,0-1.59,0.28-2.26,0.83c-0.67,0.56-1.1,1.24-1.32,2.07
			c-0.13,0.54-0.2,1.52-0.2,2.94v3.96h-1.39V317.84z"/>
		<path style="fill:#B0C172;" d="M659.67,317.84h1.39v8.61c0,1.52-0.13,2.63-0.4,3.33c-0.36,0.99-1,1.76-1.9,2.29
			c-0.9,0.54-1.98,0.8-3.25,0.8c-0.93,0-1.76-0.13-2.5-0.39c-0.74-0.26-1.34-0.61-1.8-1.06c-0.46-0.44-0.89-1.09-1.28-1.94h1.51
			c0.41,0.72,0.94,1.24,1.59,1.59c0.65,0.34,1.46,0.52,2.42,0.52c0.95,0,1.75-0.18,2.4-0.53c0.65-0.35,1.12-0.8,1.4-1.33
			c0.28-0.53,0.42-1.4,0.42-2.59v-0.56c-0.52,0.66-1.16,1.17-1.92,1.52c-0.76,0.35-1.56,0.53-2.41,0.53c-0.99,0-1.93-0.25-2.8-0.74
			c-0.88-0.49-1.55-1.16-2.03-1.99c-0.48-0.83-0.72-1.75-0.72-2.75c0-1,0.25-1.93,0.75-2.8c0.5-0.86,1.18-1.55,2.06-2.05
			c0.88-0.5,1.8-0.75,2.78-0.75c0.81,0,1.56,0.17,2.26,0.5c0.7,0.33,1.37,0.89,2.02,1.65V317.84z M655.57,318.9
			c-0.79,0-1.52,0.19-2.2,0.57c-0.68,0.38-1.21,0.91-1.59,1.58c-0.38,0.67-0.58,1.4-0.58,2.18c0,1.19,0.4,2.17,1.19,2.94
			c0.79,0.77,1.82,1.16,3.09,1.16c1.28,0,2.31-0.38,3.08-1.15c0.78-0.77,1.17-1.78,1.17-3.03c0-0.81-0.18-1.54-0.54-2.18
			c-0.36-0.64-0.86-1.14-1.52-1.51C657.03,319.09,656.32,318.9,655.57,318.9z"/>
		<path style="fill:#B0C172;" d="M675.87,314.04l6.81,14.61h-1.58l-2.3-4.81h-6.29l-2.28,4.81h-1.63l6.9-14.61H675.87z
			 M675.68,317.14l-2.5,5.29h5L675.68,317.14z"/>
		<path style="fill:#B0C172;" d="M684.54,317.84h1.39v5.05c0,1.23,0.07,2.08,0.2,2.54c0.2,0.66,0.58,1.19,1.14,1.57
			c0.56,0.38,1.23,0.58,2,0.58c0.78,0,1.43-0.19,1.97-0.56c0.54-0.37,0.91-0.87,1.12-1.48c0.14-0.42,0.21-1.3,0.21-2.65v-5.05H694
			v5.3c0,1.49-0.17,2.61-0.52,3.37s-0.87,1.35-1.57,1.77c-0.7,0.43-1.57,0.64-2.63,0.64s-1.93-0.21-2.64-0.64s-1.23-1.02-1.58-1.79
			c-0.35-0.76-0.52-1.92-0.52-3.45V317.84z"/>
		<path style="fill:#B0C172;" d="M698.3,313.83h1.39v4.01h2.21v1.2h-2.21v9.61h-1.39v-9.61h-1.9v-1.2h1.9V313.83z"/>
		<path style="fill:#B0C172;" d="M703.98,313.67h1.39v6.11c0.56-0.74,1.18-1.3,1.86-1.66c0.68-0.37,1.41-0.55,2.2-0.55
			c0.81,0,1.52,0.21,2.15,0.62s1.09,0.96,1.39,1.65c0.3,0.69,0.45,1.78,0.45,3.25v5.56h-1.39v-5.16c0-1.24-0.05-2.08-0.15-2.49
			c-0.17-0.72-0.49-1.25-0.94-1.61s-1.05-0.54-1.78-0.54c-0.84,0-1.59,0.28-2.26,0.83c-0.67,0.56-1.1,1.24-1.32,2.07
			c-0.13,0.53-0.2,1.51-0.2,2.94v3.96h-1.39V313.67z"/>
		<path style="fill:#B0C172;" d="M721.5,317.56c1.66,0,3.05,0.6,4.14,1.81c0.99,1.1,1.49,2.4,1.49,3.9c0,1.51-0.53,2.83-1.58,3.96
			c-1.05,1.13-2.4,1.69-4.05,1.69c-1.66,0-3.01-0.56-4.06-1.69c-1.05-1.13-1.58-2.45-1.58-3.96c0-1.5,0.5-2.79,1.49-3.89
			C718.45,318.17,719.83,317.56,721.5,317.56z M721.5,318.92c-1.16,0-2.15,0.43-2.98,1.28c-0.83,0.85-1.25,1.89-1.25,3.1
			c0,0.78,0.19,1.51,0.57,2.19c0.38,0.68,0.89,1.2,1.54,1.56c0.64,0.37,1.35,0.55,2.12,0.55c0.77,0,1.48-0.18,2.12-0.55
			c0.65-0.37,1.16-0.89,1.54-1.56c0.38-0.68,0.57-1.4,0.57-2.19c0-1.21-0.42-2.24-1.25-3.1
			C723.64,319.35,722.65,318.92,721.5,318.92z"/>
		<path style="fill:#B0C172;" d="M729.18,317.84h1.42v1.58c0.42-0.62,0.87-1.09,1.34-1.4c0.47-0.31,0.96-0.46,1.47-0.46
			c0.38,0,0.79,0.12,1.23,0.37l-0.73,1.17c-0.29-0.13-0.54-0.19-0.74-0.19c-0.46,0-0.91,0.19-1.34,0.57s-0.76,0.97-0.98,1.77
			c-0.17,0.62-0.26,1.86-0.26,3.73v3.66h-1.42V317.84z"/>
		<path style="fill:#B0C172;" d="M736.31,313.39c0.32,0,0.59,0.11,0.81,0.34c0.22,0.23,0.34,0.5,0.34,0.81
			c0,0.31-0.11,0.58-0.34,0.8c-0.22,0.23-0.49,0.34-0.81,0.34c-0.31,0-0.58-0.11-0.8-0.34s-0.34-0.49-0.34-0.8
			c0-0.32,0.11-0.59,0.34-0.81S736,313.39,736.31,313.39z M735.62,317.84h1.39v10.81h-1.39V317.84z"/>
		<path style="fill:#B0C172;" d="M741.11,313.83h1.39v4.01h2.21v1.2h-2.21v9.61h-1.39v-9.61h-1.9v-1.2h1.9V313.83z"/>
		<path style="fill:#B0C172;" d="M745.63,317.84h1.47l3.71,8.32l3.61-8.32h1.48l-6.45,14.76h-1.47l2.08-4.77L745.63,317.84z"/>
	</g>
	<g>
		<path style="fill:#B0C172;" d="M7.9,53.77c4.51,0,9.03,0,13.73,0c0-0.64-0.01-1.22,0-1.8c0.1-7.41,0.06-14.82,0.35-22.21
			c0.2-5.11,1.49-9.94,5.54-13.56c3.89-3.47,8.52-4.97,13.65-5.16c5.48-0.21,10.78,0.84,15.99,2.38c0.4,0.12,0.98,0.64,0.98,0.98
			c0.05,3.98,0.02,7.95-0.01,11.93c0,0.08-0.09,0.16-0.21,0.35c-1.36-0.49-2.73-1.04-4.13-1.48c-4.02-1.25-8.1-2.23-12.29-0.97
			c-3.3,1-5.91,2.87-6.03,6.69c-0.25,7.54-0.35,15.09-0.52,22.8c7.38,0,14.51,0,21.77,0c0,3.95,0,7.74,0,11.69
			c-7.13,0-14.26,0-21.59,0c0,30.86,0,61.56,0,92.36c-4.55,0-8.9,0-13.42,0c0-30.69,0-61.39,0-92.38c-4.71,0-9.26,0-13.81,0
			C7.9,61.53,7.9,57.65,7.9,53.77z"/>
		<path style="fill:#B0C172;" d="M168.02,70.58c2.94-2.83,5.65-5.81,8.74-8.34c10.42-8.53,22.4-13.01,35.92-13.3
			c15-0.32,28.19,4.46,39.68,14.05c0.75,0.63,1.07,1.28,1.07,2.28c-0.03,28.3-0.03,56.6,0,84.9c0,0.98-0.27,1.65-1.04,2.29
			c-12.68,10.57-27.24,15.35-43.69,13.84c-17.27-1.59-31.11-9.55-41.72-23.21c-0.06-0.08-0.1-0.17-0.23-0.41
			c8.93-10.13,13.34-22.09,13.65-35.61C180.71,93.61,176.92,81.5,168.02,70.58z M200.8,102.93c-1.26,1.05-2.55,2.07-3.78,3.15
			c-3.55,3.13-7.07,6.28-9.3,10.57c-4.78,9.25-0.57,19.38,9.13,21.77c4.13,1.02,8.29,0.69,12.39-0.36
			c5.65-1.44,10.16-4.88,14.68-8.31c0.42-0.32,0.85-0.63,1.27-0.94c-0.08,0.16-0.16,0.32-0.24,0.47c2.59,2.4,5.18,4.8,7.77,7.19
			c0.36,0.33,0.76,0.84,1.15,0.86c2.69,0.08,5.38,0.04,8.08,0.04c0.12-0.2,0.24-0.4,0.36-0.6c-4.12-3.91-8.23-7.81-12.35-11.72
			c2.75-2.24,5.27-4.29,7.89-6.42c-1.52-1.59-2.87-3.01-4.2-4.4c-2.76,2.18-5.36,4.22-8.04,6.34c-5.37-5.57-10.61-11.01-15.95-16.54
			c0.68-0.61,1.27-1.12,1.85-1.65c2.86-2.62,5.75-5.23,7.65-8.69c3.19-5.8,1.49-12.03-4.33-15.18c-5.37-2.9-10.89-2.84-16.25,0.07
			c-3.43,1.86-5.62,4.71-5.81,8.78c-0.13,2.73,0.72,5.22,2.21,7.44C196.8,97.52,198.79,100.13,200.8,102.93z"/>
		<path style="fill:#B0C172;" d="M254.74,54.59c3.97,0,7.88,0,11.95,0c0,6.28,0,12.51,0,18.73c0.11,0.04,0.22,0.08,0.32,0.12
			c0.33-0.46,0.67-0.92,0.99-1.38c3.77-5.3,7.85-10.36,13.46-13.79c12.68-7.74,25.78-9.03,39.19-1.81c7,3.77,11.03,9.97,13.77,17.18
			c0.46,1.2,0.89,2.4,1.46,3.92c0.38-0.66,0.65-1.09,0.89-1.54c5-9,11.64-16.43,21.21-20.64c11.97-5.26,23.87-5.34,35.15,1.96
			c7.73,5,11.86,12.51,13.81,21.33c1.44,6.54,1.91,13.18,1.93,19.85c0.07,19,0.02,38,0.02,57c0,0.49-0.04,0.97-0.07,1.55
			c-4.14,0-8.19,0-12.34,0c0-0.68,0-1.28,0-1.87c0-18.75,0.12-37.51-0.07-56.26c-0.06-5.94-0.48-11.95-1.51-17.79
			c-1.63-9.24-9.29-15.91-18.59-17.29c-17.43-2.59-32.47,9.39-36.24,25.52c-1.83,7.84-2.29,15.83-2.34,23.84
			c-0.09,14.03-0.03,28.05-0.03,42.08c0,0.54,0,1.09,0,1.75c-4.08,0-8.07,0-12.21,0c0-0.66,0-1.25,0-1.83
			c0-18.4,0.03-36.81-0.02-55.21c-0.02-6.46-0.22-12.94-1.76-19.26c-2.39-9.78-10.91-16.52-20.96-17.19
			c-14.94-1-29.74,9.46-33.72,26.13c-1.56,6.52-2.14,13.14-2.19,19.81c-0.1,15.27-0.09,30.54-0.13,45.81c0,0.54,0,1.08,0,1.75
			c-4.05,0-7.99,0-11.99,0C254.74,122.91,254.74,88.8,254.74,54.59z"/>
		<path style="fill:#B0C172;" d="M72.23,54.6c3.98,0,7.93,0,12,0c0,6.63,0,13.18,0,19.73c0.1,0.05,0.2,0.1,0.3,0.15
			c0.36-0.48,0.74-0.96,1.09-1.44c5.97-8.09,13.19-14.76,22.81-18.05c18.75-6.41,36.11-3.61,51.43,9.2
			c10.98,9.18,17.6,20.94,18.99,35.31c1.55,15.99-2.46,30.34-13.24,42.55c-0.13,0.15-0.25,0.3-0.47,0.56
			c0.52,0.8,1.05,1.62,1.64,2.52c-0.48,0.36-0.9,0.68-1.45,1.09c-0.53-0.69-1.03-1.33-1.63-2.11
			c-11.25,11.46-24.87,16.65-40.83,15.66c-16.09-1-28.43-8.85-38.54-21.44c0,19.15,0,37.92,0,56.8c-4.1,0-8.05,0-12.11,0
			C72.23,148.35,72.23,101.52,72.23,54.6z M124.88,63.46c-15.28,0.15-27,6.8-35.24,19.56c-5.21,8.06-6.81,17.07-6.22,26.53
			c0.69,11.14,4.65,20.91,13.18,28.26c12.14,10.47,26.16,13.91,41.55,8.8c19.26-6.39,31.04-26.02,28.25-46.55
			C163.68,80.08,147.27,63.32,124.88,63.46z"/>
		<path style="fill:#B0C172;" d="M743.68,230.22c-0.13-5.5,0.5-10.88-1.08-16.12c-2.2-7.26-7.47-10.74-14.66-11.68
			c-10.1-1.31-19.66,0.77-28.85,4.94c-1.49,0.68-2.97,1.37-4.65,2.14c-1.41-2.93-2.82-5.85-4.36-9.04c2.62-1.29,5.13-2.68,7.74-3.8
			c11.61-4.99,23.66-6.7,36.14-4.36c12.62,2.36,20.97,11.4,22.5,24.12c0.27,2.26,0.42,4.56,0.43,6.84
			c0.03,20.64,0.02,41.28,0.02,61.92c0,0.64,0,1.27,0,1.99c-3.67,0-7.19,0-10.88,0c-0.3-3.43-0.6-6.86-0.92-10.52
			c-0.48,0.42-0.82,0.68-1.11,0.98c-7.83,7.91-17.43,11.5-28.44,11.72c-6.23,0.13-12.2-0.89-17.68-3.93
			c-8.9-4.92-13.82-12.36-13.76-22.71c0.02-3.62-0.01-7.3,0.63-10.83c1.26-7.06,5.73-11.98,11.7-15.62
			c6.08-3.71,12.81-5.45,19.84-5.72c8.49-0.32,17-0.22,25.5-0.3C742.36,230.21,742.94,230.22,743.68,230.22z M743.68,239.78
			c-0.4-0.03-0.63-0.06-0.87-0.06c-6.91,0-13.82-0.06-20.72,0.02c-4.89,0.05-9.71,0.66-14.25,2.65c-5.23,2.29-8.96,5.98-10,11.72
			c-0.51,2.8-0.46,5.74-0.43,8.61c0.07,6.66,3.25,11.42,9.23,14.28c4.31,2.06,8.92,2.21,13.57,1.8c9.45-0.82,17.17-4.88,22.95-12.48
			c0.28-0.37,0.52-0.88,0.52-1.33C743.68,256.65,743.68,248.31,743.68,239.78z"/>
		<path style="fill:#B0C172;" d="M594.32,244.33c-21.52,0-43,0-64.74,0c0.12,2.08,0.18,4.04,0.36,6c0.46,5.2,1.68,10.2,4.29,14.77
			c4.64,8.13,11.84,12.3,21,13.43c10.35,1.28,19.67-1.5,28.29-7.1c0.66-0.43,1.34-0.84,2.16-1.35c1.73,2.86,3.44,5.69,5.19,8.58
			c-4.4,3.38-9.18,5.88-14.31,7.68c-11.79,4.12-23.63,4.4-35.24-0.43c-12.53-5.22-19.9-15.03-22.95-28.04
			c-1-4.26-1.39-8.74-1.49-13.13c-0.12-5.9-0.22-11.89,0.62-17.7c2.03-14.05,8.53-25.69,21.78-31.81c14.08-6.5,28.2-5.8,41.02,3.66
			c6.9,5.09,10.64,12.47,12.72,20.68c1.94,7.64,2.28,15.41,1.6,23.24C594.58,243.27,594.43,243.75,594.32,244.33z M529.64,234.58
			c17.83,0,35.5,0,53.51,0c-0.34-3.54-0.49-6.97-1.05-10.34c-1.01-6.11-3.4-11.63-7.93-16.01c-5.2-5.02-11.66-6.58-18.65-6.36
			c-9.44,0.3-16.63,4.46-21.27,12.79C530.84,220.82,529.81,227.54,529.64,234.58z"/>
		<path style="fill:#B0C172;" d="M423.75,277.22c2.3-2.9,4.51-5.7,6.52-8.24c3.82,2.19,7.35,4.66,11.22,6.33
			c10,4.3,20.36,4.87,30.69,1.33c10.65-3.65,10.79-14.16,7.91-20.87c-0.98-2.28-2.78-3.97-4.96-4.99
			c-4.35-2.03-8.77-3.93-13.24-5.69c-6.27-2.48-12.69-4.61-18.9-7.23c-2.88-1.22-5.55-3.09-8.08-4.98
			c-3.79-2.82-6.03-6.74-6.58-11.45c-0.91-7.64-0.36-14.94,5.6-20.76c4.52-4.41,9.99-7.07,16.09-8.23
			c15.71-2.99,30.22-0.22,43.11,9.61c0.23,0.18,0.44,0.38,0.78,0.66c-2.2,2.62-4.36,5.19-6.46,7.7c-3.05-1.64-5.92-3.45-8.99-4.8
			c-8.73-3.85-17.8-4.66-27.09-2.35c-1.14,0.28-2.24,0.79-3.33,1.27c-9.33,4.1-8.48,16.99-1.58,21.23c4.02,2.47,8.3,4.24,12.67,5.88
			c6.88,2.57,13.78,5.07,20.58,7.84c2.45,1,4.7,2.58,6.9,4.09c4.6,3.16,7.37,7.61,7.78,13.15c0.31,4.18,0.43,8.5-0.27,12.6
			c-1.28,7.51-6.48,12.17-13,15.5c-5.82,2.98-12.06,4.22-18.54,4.46c-11.89,0.45-23.13-1.85-33.37-8.16
			c-1.39-0.86-2.72-1.83-4.06-2.77C424.73,278.05,424.33,277.69,423.75,277.22z"/>
		<path style="fill:#B0C172;" d="M628.12,203.88c-4.99,0-9.85,0-14.81,0c0-3.48,0-6.84,0-10.36c4.88,0,9.83,0,14.95,0
			c0.42-7.47,0.84-14.78,1.26-22.2c3.97,0,7.81,0,11.79,0c0,7.37,0,14.66,0,22.09c7.57,0,15,0,22.53,0c0,3.5,0,6.85,0,10.37
			c-7.43,0-14.87,0-22.54,0c0,0.78,0,1.4,0,2.02c0,20.14,0,40.29,0,60.43c0,8,3.95,12.17,11.95,12.5c1.98,0.08,3.98-0.05,5.95-0.27
			c1.92-0.21,3.82-0.64,5.94-1.02c0.38,2.19,0.79,4.41,1.13,6.65c0.5,3.23,0.49,3.24-2.72,3.95c-6.18,1.37-12.39,1.8-18.65,0.64
			c-10.75-1.98-16.78-9.26-16.79-20.27c-0.02-20.89,0-41.78,0-62.67C628.12,205.18,628.12,204.59,628.12,203.88z"/>
		<path style="fill:#B0C172;" d="M166.03,149.19c3.24,5.66,6.05,11.32,9.54,16.55c15.16,22.73,35.92,38.49,61.27,48.34
			c13.7,5.32,27.93,8.4,42.53,9.89c18.55,1.9,37.03,1.09,55.46-1.45c28.24-3.88,55.45-11.68,82.14-21.47
			c17.54-6.44,34.53-14.16,51.6-21.72c25.7-11.39,52.09-20.82,79.43-27.49c18.28-4.46,36.79-7.58,55.58-8.72
			c25.23-1.53,50.16,0.26,74.55,7.35c25.48,7.41,48.16,19.81,67.53,38.04c10.05,9.45,18.79,19.98,25.52,32.08
			c0.33,0.59,1.43,1.27,0.32,2.05c-0.09,0.06-1.05-0.85-1.38-1.43c-6.57-11.61-14.92-21.81-24.55-30.98
			c-23.01-21.91-50.42-35.32-81.34-41.89c-17.26-3.67-34.73-4.91-52.33-4.34c-26.16,0.84-51.72,5.52-76.88,12.57
			c-26.79,7.51-52.58,17.69-77.85,29.26c-26.55,12.15-53.79,22.44-82.05,29.88c-16.55,4.36-33.31,7.63-50.35,9.33
			c-14.67,1.47-29.36,1.76-44.07,0.36c-25.74-2.45-49.88-9.65-71.51-24.19c-17.36-11.67-31.17-26.6-40.91-45.18
			c-0.97-1.84-1.73-3.79-2.63-5.68C165.22,149.41,165.69,149.22,166.03,149.19z"/>
		<path style="fill:#B0C172;" d="M268.16,130.56c0.06-13.29-0.95-26.64,2.11-39.77C274.36,104.3,273.68,117.56,268.16,130.56z"/>
		<path style="fill:#B0C172;" d="M181.14,162.3c-0.43,0.45-0.8,0.84-1.33,1.41c-0.71-0.81-1.38-1.58-2.13-2.43
			c0.42-0.4,0.84-0.79,1.32-1.24C179.74,160.82,180.41,161.53,181.14,162.3z"/>
		<path style="fill:#B0C172;" d="M390.22,184.42c1.06-0.35,1.98-0.65,2.99-0.99c0.22,0.61,0.39,1.1,0.63,1.76
			c-1,0.34-1.94,0.66-2.98,1.01C390.64,185.58,390.46,185.09,390.22,184.42z"/>
		<path style="fill:#B0C172;" d="M733.78,166.92c0.48-0.52,0.84-0.9,1.28-1.38c0.79,0.72,1.51,1.38,2.46,2.25
			c-0.53,0.36-1.01,0.68-1.63,1.09C735.33,168.36,734.63,167.7,733.78,166.92z"/>
		<path style="fill:#B0C172;" d="M198.38,176.63c-0.42,0.56-0.73,0.99-1.13,1.53c-0.84-0.61-1.63-1.19-2.54-1.85
			c0.37-0.52,0.7-0.97,1.11-1.54C196.68,175.4,197.47,175.97,198.38,176.63z"/>
		<path style="fill:#B0C172;" d="M497.74,141.52c0.22,0.61,0.4,1.1,0.64,1.73c-0.98,0.35-1.88,0.68-2.94,1.06
			c-0.23-0.59-0.43-1.12-0.68-1.76C495.77,142.2,496.72,141.87,497.74,141.52z"/>
		<path style="fill:#B0C172;" d="M724.59,156.57c-0.39,0.51-0.72,0.93-1.16,1.51c-0.82-0.62-1.58-1.21-2.49-1.9
			c0.36-0.5,0.69-0.96,1.12-1.55C722.91,155.29,723.72,155.9,724.59,156.57z"/>
		<path style="fill:#B0C172;" d="M285.47,204.36c0.04-0.75,0.06-1.23,0.09-1.89c1.03,0.06,1.98,0.12,3.02,0.18c0,0.61,0,1.12,0,1.71
			C287.57,204.36,286.57,204.36,285.47,204.36z"/>
		<path style="fill:#B0C172;" d="M374.67,191.18c-0.21-0.65-0.36-1.11-0.57-1.77c0.99-0.3,1.94-0.59,3.03-0.93
			c0.18,0.63,0.33,1.14,0.52,1.81C376.67,190.59,375.76,190.86,374.67,191.18z"/>
		<path style="fill:#B0C172;" d="M382.54,186.87c0.21,0.67,0.36,1.17,0.55,1.8c-0.99,0.31-1.91,0.59-2.96,0.92
			c-0.2-0.59-0.38-1.11-0.6-1.77C380.54,187.5,381.45,187.21,382.54,186.87z"/>
		<path style="fill:#B0C172;" d="M503.09,139.71c0.23,0.65,0.38,1.11,0.6,1.74c-0.96,0.35-1.89,0.68-2.95,1.06
			c-0.23-0.65-0.42-1.17-0.64-1.79C501.13,140.38,502.04,140.07,503.09,139.71z"/>
		<path style="fill:#B0C172;" d="M728.99,160.11c-0.43,0.51-0.77,0.92-1.22,1.46c-0.81-0.68-1.57-1.32-2.4-2.01
			c0.41-0.51,0.75-0.93,1.18-1.46C727.38,158.79,728.17,159.43,728.99,160.11z"/>
		<path style="fill:#B0C172;" d="M452.96,159.47c0.98-0.42,1.87-0.81,2.86-1.24c0.27,0.58,0.51,1.09,0.79,1.71
			c-1.02,0.45-1.91,0.84-2.89,1.26C453.47,160.59,453.24,160.08,452.96,159.47z"/>
		<path style="fill:#B0C172;" d="M249.67,198.4c-0.15,0.67-0.27,1.18-0.42,1.83c-0.98-0.22-1.9-0.43-3.02-0.68
			c0.12-0.62,0.22-1.16,0.35-1.84C247.62,197.93,248.55,198.14,249.67,198.4z"/>
		<path style="fill:#B0C172;" d="M355.42,194.29c0.16,0.71,0.26,1.18,0.39,1.78c-0.5,0.14-0.96,0.29-1.43,0.41
			c-0.47,0.12-0.95,0.22-1.54,0.35c-0.17-0.57-0.32-1.07-0.53-1.76C353.34,194.81,354.31,194.57,355.42,194.29z"/>
		<path style="fill:#B0C172;" d="M217.8,187.78c-0.25,0.55-0.47,1.03-0.75,1.65c-0.98-0.46-1.89-0.89-2.78-1.31
			C214.94,186.23,214.94,186.23,217.8,187.78z"/>
		<path style="fill:#B0C172;" d="M616.27,122.02c0-0.51,0-1.03,0-1.6c1,0,1.92,0,2.83,0C619.73,122.45,619.3,122.69,616.27,122.02z"
			/>
		<path style="fill:#B0C172;" d="M481.87,147.38c0.26,0.63,0.45,1.12,0.71,1.75c-0.98,0.39-1.88,0.74-2.92,1.16
			c-0.25-0.62-0.45-1.15-0.69-1.75C479.93,148.16,480.8,147.81,481.87,147.38z"/>
		<path style="fill:#B0C172;" d="M396.19,184.37c-0.22-0.68-0.37-1.18-0.57-1.79c0.99-0.34,1.9-0.65,2.93-1
			c0.21,0.58,0.4,1.11,0.64,1.77C398.19,183.68,397.28,183.99,396.19,184.37z"/>
		<path style="fill:#B0C172;" d="M711.78,149.76c0.34-0.54,0.62-0.98,1-1.57c0.87,0.58,1.67,1.1,2.62,1.72
			c-0.35,0.54-0.65,1-1.04,1.59C713.47,150.91,712.67,150.37,711.78,149.76z"/>
		<path style="fill:#B0C172;" d="M401.55,182.54c-0.24-0.64-0.42-1.12-0.67-1.76c0.99-0.35,1.89-0.67,2.96-1.04
			c0.21,0.55,0.41,1.08,0.67,1.77C403.54,181.84,402.59,182.17,401.55,182.54z"/>
		<path style="fill:#B0C172;" d="M747.42,181.39c-0.69-0.84-1.31-1.59-1.98-2.42c0.47-0.41,0.91-0.78,1.45-1.25
			c0.69,0.85,1.3,1.6,1.99,2.46C748.4,180.58,747.96,180.94,747.42,181.39z"/>
		<path style="fill:#B0C172;" d="M719.01,154.71c-0.88-0.61-1.68-1.16-2.58-1.78c0.37-0.54,0.69-1.02,1.07-1.56
			c0.88,0.6,1.69,1.15,2.59,1.77C719.71,153.68,719.39,154.15,719.01,154.71z"/>
		<path style="fill:#B0C172;" d="M681.83,134.72c0.28-0.66,0.49-1.15,0.74-1.74c0.97,0.37,1.87,0.71,2.9,1.1
			c-0.24,0.61-0.45,1.14-0.69,1.75C683.78,135.45,682.88,135.11,681.83,134.72z"/>
		<path style="fill:#B0C172;" d="M525.23,134.85c-1.08,0.31-1.97,0.56-3.02,0.86c-0.18-0.6-0.35-1.14-0.55-1.79
			c1.03-0.29,1.96-0.56,2.97-0.84C524.84,133.68,525.01,134.18,525.23,134.85z"/>
		<path style="fill:#B0C172;" d="M519.79,136.4c-1.06,0.3-1.95,0.55-3.01,0.85c-0.2-0.6-0.38-1.12-0.61-1.78
			c1.06-0.31,1.99-0.57,3.02-0.87C519.39,135.22,519.56,135.72,519.79,136.4z"/>
		<path style="fill:#B0C172;" d="M190.17,172.91c0.44-0.56,0.77-0.98,1.16-1.49c0.83,0.61,1.62,1.19,2.52,1.84
			c-0.37,0.51-0.71,0.96-1.13,1.53C191.87,174.16,191.09,173.58,190.17,172.91z"/>
		<path style="fill:#B0C172;" d="M698.04,139.78c0.97,0.51,1.83,0.97,2.77,1.46c-0.28,0.57-0.51,1.03-0.83,1.68
			c-0.94-0.48-1.82-0.94-2.77-1.43C697.51,140.88,697.74,140.41,698.04,139.78z"/>
		<path style="fill:#B0C172;" d="M189.47,169.79c-0.4,0.51-0.73,0.93-1.15,1.48c-0.84-0.69-1.61-1.34-2.48-2.06
			c0.48-0.53,0.86-0.96,1.28-1.42C187.93,168.48,188.67,169.11,189.47,169.79z"/>
		<path style="fill:#B0C172;" d="M506.12,140.69c-0.23-0.61-0.42-1.1-0.66-1.74c0.98-0.35,1.93-0.68,2.96-1.04
			c0.22,0.6,0.41,1.09,0.66,1.74C508.09,139.99,507.15,140.33,506.12,140.69z"/>
		<path style="fill:#B0C172;" d="M204.13,182.63c0.39-0.61,0.68-1.05,1.02-1.59c0.94,0.52,1.79,0.99,2.72,1.5
			c-0.32,0.57-0.61,1.07-0.94,1.65C205.99,183.68,205.15,183.2,204.13,182.63z"/>
		<path style="fill:#B0C172;" d="M752.38,184.6c-0.51,0.4-0.93,0.73-1.48,1.17c-0.63-0.8-1.22-1.56-1.93-2.46
			c0.45-0.37,0.88-0.74,1.48-1.23C751.11,182.92,751.72,183.73,752.38,184.6z"/>
		<path style="fill:#B0C172;" d="M385.52,188c-0.22-0.63-0.38-1.13-0.61-1.78c0.98-0.32,1.88-0.61,2.92-0.94
			c0.23,0.56,0.42,1.04,0.7,1.72C387.51,187.34,386.58,187.65,385.52,188z"/>
		<path style="fill:#B0C172;" d="M224.52,192.69c0.22-0.59,0.41-1.08,0.66-1.74c1.02,0.38,1.95,0.74,2.95,1.11
			c-0.22,0.59-0.41,1.09-0.65,1.74C226.49,193.44,225.56,193.09,224.52,192.69z"/>
		<path style="fill:#B0C172;" d="M668.89,130.32c-1.1-0.35-1.93-0.62-2.93-0.93c0.16-0.6,0.31-1.14,0.48-1.8
			c1.02,0.31,1.94,0.59,2.99,0.91C669.24,129.14,669.08,129.68,668.89,130.32z"/>
		<path style="fill:#B0C172;" d="M366.32,191.61c0.17,0.6,0.32,1.1,0.51,1.78c-0.99,0.26-1.91,0.51-3.03,0.81
			c-0.17-0.63-0.32-1.16-0.5-1.81C364.34,192.12,365.27,191.88,366.32,191.61z"/>
		<path style="fill:#B0C172;" d="M361.32,194.78c-1.07,0.26-2.01,0.49-3.08,0.75c-0.13-0.61-0.25-1.12-0.4-1.8
			c1-0.26,1.93-0.49,3-0.77C361.02,193.61,361.16,194.15,361.32,194.78z"/>
		<path style="fill:#B0C172;" d="M758.47,197.03c0.6-0.35,1.06-0.61,1.64-0.95c0.51,0.9,0.99,1.73,1.55,2.72
			c-0.56,0.32-1.04,0.59-1.65,0.94C759.51,198.85,759.03,198.02,758.47,197.03z"/>
		<path style="fill:#B0C172;" d="M319.34,202.66c-0.05-0.65-0.1-1.22-0.15-1.86c1.05-0.14,1.96-0.26,3.01-0.41
			c0.1,0.64,0.19,1.19,0.3,1.84C321.4,202.38,320.43,202.51,319.34,202.66z"/>
		<path style="fill:#B0C172;" d="M671.87,129.24c1.03,0.33,1.96,0.62,2.97,0.95c-0.18,0.62-0.33,1.12-0.52,1.78
			c-0.97-0.3-1.89-0.58-2.97-0.9C671.52,130.45,671.68,129.91,671.87,129.24z"/>
		<path style="fill:#B0C172;" d="M510.79,137.11c1.01-0.33,1.93-0.63,2.98-0.98c0.21,0.61,0.39,1.14,0.6,1.78
			c-1,0.33-1.92,0.63-2.97,0.99C511.19,138.29,511.01,137.76,510.79,137.11z"/>
		<path style="fill:#B0C172;" d="M490.14,146.24c-0.23-0.68-0.4-1.18-0.62-1.8c1-0.39,1.9-0.74,2.89-1.12
			c0.23,0.58,0.42,1.08,0.66,1.72C492.13,145.43,491.23,145.8,490.14,146.24z"/>
		<path style="fill:#B0C172;" d="M484.87,148.25c-0.25-0.66-0.42-1.11-0.65-1.72c0.96-0.39,1.89-0.77,2.9-1.18
			c0.24,0.64,0.44,1.16,0.68,1.79C486.82,147.51,485.92,147.86,484.87,148.25z"/>
		<path style="fill:#B0C172;" d="M166.65,148.26c0.57-0.4,1.01-0.71,1.57-1.11c0.62,0.82,1.2,1.59,1.88,2.48
			c-0.52,0.41-0.97,0.77-1.48,1.17C167.96,149.96,167.36,149.18,166.65,148.26z"/>
		<path style="fill:#B0C172;" d="M474.41,152.31c-0.25-0.66-0.45-1.15-0.68-1.77c1-0.38,1.91-0.72,2.91-1.1
			c0.25,0.6,0.46,1.09,0.72,1.72C476.38,151.55,475.48,151.9,474.41,152.31z"/>
		<path style="fill:#B0C172;" d="M469.21,154.47c-0.28-0.65-0.48-1.14-0.73-1.73c0.94-0.42,1.82-0.82,2.83-1.27
			c0.26,0.57,0.5,1.08,0.79,1.73C471.13,153.62,470.26,154.01,469.21,154.47z"/>
		<path style="fill:#B0C172;" d="M170.1,152.79c0.58-0.46,1-0.8,1.49-1.19c0.68,0.82,1.31,1.57,1.99,2.39
			c-0.49,0.43-0.93,0.82-1.43,1.26C171.47,154.44,170.85,153.69,170.1,152.79z"/>
		<path style="fill:#B0C172;" d="M466.17,153.71c0.27,0.59,0.48,1.07,0.77,1.7c-0.95,0.43-1.87,0.85-2.85,1.29
			c-0.27-0.58-0.5-1.06-0.8-1.69C464.26,154.57,465.18,154.16,466.17,153.71z"/>
		<path style="fill:#B0C172;" d="M177.29,158.27c-0.5,0.46-0.86,0.8-1.35,1.26c-0.71-0.75-1.41-1.49-2.19-2.31
			c0.51-0.46,0.94-0.84,1.45-1.29C175.91,156.72,176.56,157.44,177.29,158.27z"/>
		<path style="fill:#B0C172;" d="M411.46,176.89c1-0.4,1.86-0.74,2.89-1.14c0.25,0.55,0.47,1.06,0.77,1.72
			c-0.98,0.39-1.87,0.75-2.95,1.18C411.93,178.07,411.73,177.55,411.46,176.89z"/>
		<path style="fill:#B0C172;" d="M446.34,164.4c-0.96,0.43-1.85,0.83-2.87,1.29c-0.27-0.55-0.51-1.06-0.82-1.69
			c0.99-0.45,1.87-0.85,2.86-1.29C445.79,163.29,446.04,163.81,446.34,164.4z"/>
		<path style="fill:#B0C172;" d="M185.22,166.14c-0.43,0.48-0.82,0.9-1.24,1.36c-0.79-0.79-1.5-1.5-2.29-2.3
			c0.39-0.32,0.8-0.65,1.35-1.1C183.71,164.72,184.44,165.4,185.22,166.14z"/>
		<path style="fill:#B0C172;" d="M430.8,171.2c-1.02,0.45-1.87,0.82-2.84,1.25c-0.26-0.56-0.5-1.07-0.81-1.73
			c0.98-0.43,1.86-0.81,2.91-1.26C430.31,170.05,430.53,170.56,430.8,171.2z"/>
		<path style="fill:#B0C172;" d="M421.91,172.79c1.03-0.41,1.9-0.75,2.91-1.15c0.24,0.55,0.47,1.07,0.76,1.72
			c-1.01,0.4-1.91,0.77-2.92,1.17C422.4,173.93,422.2,173.45,421.91,172.79z"/>
		<path style="fill:#B0C172;" d="M419.59,173.69c0.25,0.62,0.45,1.11,0.7,1.73c-0.95,0.39-1.84,0.75-2.85,1.16
			c-0.26-0.57-0.48-1.04-0.78-1.69C417.68,174.47,418.6,174.09,419.59,173.69z"/>
		<path style="fill:#B0C172;" d="M409.11,177.8c0.24,0.61,0.43,1.09,0.68,1.74c-0.97,0.39-1.86,0.75-2.9,1.17
			c-0.23-0.6-0.43-1.12-0.67-1.76C407.21,178.55,408.1,178.2,409.11,177.8z"/>
		<path style="fill:#B0C172;" d="M733.32,163.83c-0.51,0.54-0.87,0.92-1.31,1.38c-0.81-0.69-1.55-1.32-2.36-2.02
			c0.43-0.49,0.81-0.92,1.26-1.43C731.71,162.45,732.45,163.08,733.32,163.83z"/>
		<path style="fill:#B0C172;" d="M313.79,203.26c-0.08-0.72-0.15-1.24-0.23-1.91c1.1-0.06,2.06-0.12,3.15-0.18
			c0.05,0.66,0.08,1.17,0.12,1.79C315.81,203.06,314.89,203.15,313.79,203.26z"/>
		<path style="fill:#B0C172;" d="M638.52,123.89c0.12-0.7,0.2-1.17,0.31-1.81c1.03,0.12,1.97,0.23,3.05,0.36
			c-0.07,0.64-0.13,1.15-0.2,1.83C640.55,124.14,639.57,124.02,638.52,123.89z"/>
		<path style="fill:#B0C172;" d="M333.4,198.84c0.09,0.64,0.16,1.16,0.26,1.83c-1.03,0.15-1.98,0.29-3,0.44
			c-0.13-0.61-0.24-1.13-0.38-1.81C331.35,199.15,332.33,199,333.4,198.84z"/>
		<path style="fill:#B0C172;" d="M689.88,138.06c-1-0.47-1.83-0.85-2.76-1.28c0.23-0.6,0.42-1.08,0.67-1.72
			c0.97,0.42,1.84,0.79,2.88,1.24C690.39,136.93,690.15,137.46,689.88,138.06z"/>
		<path style="fill:#B0C172;" d="M230.44,193.01c1.03,0.31,1.91,0.58,2.97,0.9c-0.18,0.59-0.34,1.12-0.55,1.8
			c-1-0.31-1.92-0.6-3-0.94C230.05,194.2,230.21,193.71,230.44,193.01z"/>
		<path style="fill:#B0C172;" d="M653,124.36c-0.14,0.72-0.22,1.2-0.35,1.86c-1.03-0.18-1.98-0.35-3.05-0.54
			c0.11-0.62,0.2-1.13,0.32-1.8C650.94,124.03,651.89,124.18,653,124.36z"/>
		<path style="fill:#B0C172;" d="M461.06,155.95c0.27,0.65,0.46,1.13,0.72,1.75c-0.97,0.42-1.85,0.8-2.83,1.23
			c-0.27-0.58-0.49-1.05-0.79-1.69C459.15,156.8,460.05,156.4,461.06,155.95z"/>
		<path style="fill:#B0C172;" d="M448.59,163.45c-0.29-0.64-0.51-1.12-0.79-1.72c0.97-0.42,1.86-0.81,2.84-1.24
			c0.29,0.57,0.52,1.04,0.85,1.68C450.54,162.58,449.66,162.97,448.59,163.45z"/>
		<path style="fill:#B0C172;" d="M527.56,134.19c-0.18-0.69-0.32-1.19-0.48-1.83c1-0.29,1.92-0.55,2.95-0.85
			c0.19,0.6,0.35,1.09,0.57,1.77C529.6,133.59,528.69,133.86,527.56,134.19z"/>
		<path style="fill:#B0C172;" d="M702.13,144.07c0.39-0.65,0.67-1.1,0.99-1.62c0.91,0.5,1.76,0.97,2.7,1.49
			c-0.3,0.56-0.55,1.02-0.89,1.65C703.98,145.07,703.1,144.59,702.13,144.07z"/>
		<path style="fill:#B0C172;" d="M676.65,132.72c0.21-0.6,0.38-1.1,0.59-1.74c0.98,0.35,1.88,0.68,2.92,1.06
			c-0.21,0.63-0.38,1.16-0.59,1.81C678.54,133.45,677.64,133.1,676.65,132.72z"/>
		<path style="fill:#B0C172;" d="M200.49,177.98c0.89,0.59,1.67,1.11,2.57,1.71c-0.31,0.53-0.6,1.01-0.96,1.62
			c-0.89-0.58-1.71-1.11-2.68-1.73C199.78,179.01,200.12,178.51,200.49,177.98z"/>
		<path style="fill:#B0C172;" d="M438.23,167.99c-0.29-0.68-0.48-1.12-0.75-1.76c0.92-0.41,1.79-0.8,2.81-1.26
			c0.27,0.51,0.5,0.97,0.85,1.65C440.18,167.08,439.29,167.5,438.23,167.99z"/>
		<path style="fill:#B0C172;" d="M238.21,197.46c-1.11-0.36-1.95-0.63-2.96-0.96c0.17-0.59,0.33-1.13,0.52-1.81
			c0.99,0.32,1.9,0.62,2.95,0.96C238.55,196.27,238.39,196.81,238.21,197.46z"/>
		<path style="fill:#B0C172;" d="M341.28,197.32c1.12-0.22,2.07-0.41,3.11-0.62c0.13,0.63,0.23,1.15,0.36,1.8
			c-1,0.22-1.95,0.42-2.99,0.65C341.61,198.57,341.48,198.06,341.28,197.32z"/>
		<path style="fill:#B0C172;" d="M541.08,128.86c0.16,0.66,0.27,1.13,0.42,1.76c-0.97,0.25-1.9,0.49-3,0.78
			c-0.17-0.6-0.32-1.13-0.53-1.85C539.05,129.31,540.02,129.09,541.08,128.86z"/>
		<path style="fill:#B0C172;" d="M432.31,168.48c1.03-0.44,1.93-0.83,2.88-1.24c0.26,0.57,0.48,1.06,0.77,1.68
			c-0.96,0.44-1.88,0.86-2.87,1.3C432.82,169.62,432.6,169.13,432.31,168.48z"/>
		<path style="fill:#B0C172;" d="M621.98,120.6c1.06,0.05,1.99,0.1,3.09,0.16c-0.08,0.68-0.14,1.23-0.21,1.89
			c-1.05-0.08-1.97-0.15-2.88-0.22C621.98,121.76,621.98,121.2,621.98,120.6z"/>
		<path style="fill:#B0C172;" d="M211.88,186.99c-0.99-0.56-1.84-1.03-2.78-1.56c0.32-0.58,0.59-1.07,0.93-1.67
			c0.95,0.54,1.78,1.02,2.68,1.53C212.43,185.86,212.2,186.34,211.88,186.99z"/>
		<path style="fill:#B0C172;" d="M692.14,139.07c0.3-0.64,0.53-1.12,0.81-1.72c0.99,0.45,1.91,0.86,2.88,1.3
			c-0.29,0.58-0.52,1.06-0.84,1.7C694.08,139.94,693.21,139.55,692.14,139.07z"/>
		<path style="fill:#B0C172;" d="M565.88,125.75c-0.08-0.7-0.14-1.18-0.21-1.83c0.99-0.18,1.92-0.35,2.97-0.54
			c0.14,0.66,0.26,1.21,0.39,1.84C567.95,125.4,567,125.56,565.88,125.75z"/>
		<path style="fill:#B0C172;" d="M755.72,189.21c-0.57,0.41-0.97,0.69-1.51,1.07c-0.6-0.81-1.17-1.58-1.84-2.49
			c0.53-0.4,0.98-0.75,1.52-1.15C754.51,187.51,755.07,188.3,755.72,189.21z"/>
		<path style="fill:#B0C172;" d="M757.21,194.95c-0.59-0.92-1.1-1.72-1.68-2.61c0.5-0.35,0.97-0.67,1.56-1.08
			c0.6,0.92,1.13,1.74,1.73,2.67C758.3,194.26,757.82,194.56,757.21,194.95z"/>
		<path style="fill:#B0C172;" d="M336.13,200.21c-0.11-0.73-0.18-1.21-0.28-1.87c1.01-0.19,1.95-0.37,2.97-0.56
			c0.16,0.58,0.28,1.04,0.47,1.75C338.26,199.76,337.3,199.96,336.13,200.21z"/>
		<path style="fill:#B0C172;" d="M372.27,191.89c-1.09,0.31-1.98,0.57-3.04,0.88c-0.18-0.62-0.33-1.16-0.51-1.79
			c1.01-0.3,1.89-0.57,2.96-0.9C371.87,190.67,372.05,191.2,372.27,191.89z"/>
		<path style="fill:#B0C172;" d="M743.15,173.54c0.72,0.83,1.36,1.55,2.05,2.35c-0.46,0.43-0.84,0.79-1.34,1.27
			c-0.72-0.78-1.4-1.51-2.13-2.31C742.24,174.37,742.66,173.99,743.15,173.54z"/>
		<path style="fill:#B0C172;" d="M532.96,132.68c-0.18-0.7-0.3-1.17-0.46-1.8c1-0.26,1.94-0.5,2.98-0.77
			c0.18,0.61,0.33,1.11,0.52,1.79C534.99,132.16,534.06,132.4,532.96,132.68z"/>
		<path style="fill:#B0C172;" d="M271.6,203.61c-1.06-0.13-2.03-0.25-3.11-0.38c0.08-0.61,0.15-1.13,0.24-1.76
			c0.97,0.07,1.85,0.12,2.87,0.19C271.6,202.27,271.6,202.82,271.6,203.61z"/>
		<path style="fill:#B0C172;" d="M588.2,122.94c-0.03-0.57-0.05-1.05-0.09-1.68c1.02-0.11,1.98-0.2,2.91-0.3
			C591.57,123.04,591.47,123.11,588.2,122.94z"/>
		<path style="fill:#B0C172;" d="M582.45,121.79c2.91-0.7,3.19-0.57,3.14,1.41c-0.95,0.11-1.92,0.23-3.02,0.36
			C582.53,122.9,582.49,122.33,582.45,121.79z"/>
		<path style="fill:#B0C172;" d="M710.65,146.92c-0.36,0.57-0.62,0.98-0.99,1.56c-0.85-0.51-1.68-1-2.65-1.59
			c0.31-0.55,0.59-1.03,0.95-1.65C708.91,145.83,709.76,146.36,710.65,146.92z"/>
		<path style="fill:#B0C172;" d="M546.52,127.54c0.15,0.66,0.27,1.17,0.43,1.84c-1.01,0.23-1.94,0.45-3.05,0.7
			c-0.13-0.65-0.24-1.19-0.37-1.82C544.56,128.02,545.46,127.8,546.52,127.54z"/>
		<path style="fill:#B0C172;" d="M552,126.31c0.14,0.66,0.25,1.17,0.39,1.84c-1,0.22-1.89,0.41-2.98,0.65
			c-0.15-0.59-0.29-1.13-0.46-1.81C549.97,126.77,550.87,126.56,552,126.31z"/>
		<path style="fill:#B0C172;" d="M220.01,188.81c1.03,0.43,1.88,0.8,2.88,1.22c-0.24,0.58-0.46,1.1-0.72,1.73
			c-1.02-0.43-1.91-0.8-2.89-1.21C219.53,189.96,219.73,189.48,220.01,188.81z"/>
		<path style="fill:#B0C172;" d="M554.6,125.9c1.1-0.2,1.96-0.36,2.99-0.55c0.14,0.59,0.26,1.13,0.42,1.81
			c-1.05,0.2-1.98,0.38-3.1,0.6C554.8,127.12,554.71,126.58,554.6,125.9z"/>
		<path style="fill:#B0C172;" d="M658.58,125.61c-0.17,0.71-0.3,1.22-0.45,1.83c-0.97-0.23-1.86-0.44-2.92-0.68
			c0.07-0.6,0.14-1.15,0.23-1.84C656.54,125.16,657.48,125.36,658.58,125.61z"/>
		<path style="fill:#B0C172;" d="M560.42,126.75c-0.14-0.71-0.24-1.22-0.37-1.84c1.08-0.18,2.03-0.33,3.13-0.51
			c0.08,0.67,0.15,1.19,0.23,1.81C562.4,126.38,561.49,126.55,560.42,126.75z"/>
		<path style="fill:#B0C172;" d="M251.7,200.7c0.13-0.6,0.25-1.11,0.4-1.76c0.98,0.17,1.89,0.32,2.78,0.47
			C255.12,201.44,255.12,201.44,251.7,200.7z"/>
		<path style="fill:#B0C172;" d="M663.54,128.78c-1.08-0.28-1.98-0.51-2.99-0.76c0.15-0.63,0.28-1.13,0.44-1.79
			c1.04,0.25,1.97,0.47,3.03,0.73C663.85,127.59,663.72,128.1,663.54,128.78z"/>
		<path style="fill:#B0C172;" d="M244.15,197.09c-0.14,0.62-0.26,1.13-0.42,1.81c-1.07-0.27-2.04-0.52-3.11-0.79
			c0.2-0.65,0.36-1.15,0.56-1.77C242.19,196.59,243.12,196.83,244.15,197.09z"/>
		<path style="fill:#B0C172;" d="M262.93,202.64c0.08-0.62,0.15-1.14,0.24-1.8c1.02,0.09,1.97,0.17,3.03,0.26
			c-0.05,0.67-0.09,1.19-0.15,1.88C265,202.87,264.01,202.76,262.93,202.64z"/>
		<path style="fill:#B0C172;" d="M739.33,169.6c0.64,0.67,1.31,1.38,2.03,2.14c-0.5,0.45-0.89,0.81-1.31,1.19
			c-0.73-0.75-1.41-1.44-2.24-2.28C738.29,170.31,738.73,170.01,739.33,169.6z"/>
		<path style="fill:#B0C172;" d="M257.53,199.9c1.14,0.19,2.06,0.34,3.14,0.51c-0.1,0.61-0.2,1.16-0.31,1.84
			c-1.02-0.17-1.93-0.32-2.97-0.49C257.42,201.18,257.47,200.66,257.53,199.9z"/>
		<path style="fill:#B0C172;" d="M308.14,203.66c-0.09-0.67-0.15-1.15-0.24-1.77c1.06-0.12,2.02-0.23,3.16-0.36
			c0.03,0.66,0.06,1.22,0.1,1.94C310.14,203.53,309.22,203.59,308.14,203.66z"/>
		<path style="fill:#B0C172;" d="M633.19,121.46c1.02,0.11,1.93,0.2,2.91,0.31c0,0.62,0,1.13,0,1.89c-1.1-0.13-2.08-0.25-3.18-0.38
			C633.02,122.62,633.1,122.11,633.19,121.46z"/>
		<path style="fill:#B0C172;" d="M291.22,202.52c1.03,0,1.95,0,2.94,0c0,0.54,0,1.02,0,1.72c-0.95,0.07-1.89,0.14-2.94,0.21
			C291.22,203.76,291.22,203.24,291.22,202.52z"/>
		<path style="fill:#B0C172;" d="M579.92,122.04c0.07,0.65,0.13,1.12,0.21,1.8c-1,0.14-1.95,0.27-3.02,0.42
			c-0.12-0.62-0.21-1.13-0.35-1.85C577.84,122.28,578.83,122.17,579.92,122.04z"/>
		<path style="fill:#B0C172;" d="M274.27,202.15c1.19,0,2.07,0,3.03,0c0,0.6,0,1.11,0,1.72c-1.05,0-2,0-3.13,0
			C274.21,203.22,274.24,202.68,274.27,202.15z"/>
		<path style="fill:#B0C172;" d="M324.96,201.91c-0.09-0.73-0.14-1.21-0.22-1.85c0.98-0.15,1.93-0.29,2.97-0.44
			c0.14,0.6,0.26,1.11,0.42,1.79C327.07,201.58,326.09,201.73,324.96,201.91z"/>
		<path style="fill:#B0C172;" d="M282.96,204.14c-1.08,0-2.01,0-3.03,0c0-0.58,0-1.09,0-1.72c1.02,0,1.97,0,3.03,0
			C282.96,202.99,282.96,203.49,282.96,204.14z"/>
		<path style="fill:#B0C172;" d="M571.51,124.93c-0.1-0.72-0.16-1.21-0.25-1.82c0.98-0.14,1.93-0.28,3-0.44
			c0.12,0.58,0.22,1.09,0.37,1.84C573.6,124.65,572.62,124.78,571.51,124.93z"/>
		<path style="fill:#B0C172;" d="M349.98,195.64c0.13,0.67,0.22,1.19,0.35,1.85c-1.02,0.19-1.93,0.36-2.99,0.56
			c-0.15-0.62-0.28-1.16-0.44-1.81C347.95,196.03,348.86,195.86,349.98,195.64z"/>
		<path style="fill:#B0C172;" d="M610.67,120.37c1.04,0,1.97,0,3,0c0,0.53,0,1.04,0,1.66c-1,0-1.96,0-3,0
			C610.67,121.5,610.67,121.03,610.67,120.37z"/>
		<path style="fill:#B0C172;" d="M647.47,123.4c-0.12,0.61-0.21,1.1-0.34,1.78c-0.96-0.14-1.9-0.28-2.97-0.45
			c0.06-0.62,0.1-1.13,0.17-1.85C645.44,123.07,646.43,123.23,647.47,123.4z"/>
		<path style="fill:#B0C172;" d="M596.88,122.44c-1.11,0.1-2,0.18-2.86,0.26c-0.58-2.02-0.32-2.2,2.71-1.95
			C596.78,121.24,596.82,121.75,596.88,122.44z"/>
		<path style="fill:#B0C172;" d="M602.39,120.51c0,0.5,0,1.02,0,1.65c-0.96,0-1.88,0-2.93,0c-0.06-0.45-0.12-0.96-0.21-1.65
			C600.32,120.51,601.31,120.51,602.39,120.51z"/>
		<path style="fill:#B0C172;" d="M630.66,121.14c-0.08,0.77-0.13,1.24-0.2,1.87c-0.99-0.11-1.94-0.21-3.01-0.33
			c0.04-0.62,0.07-1.13,0.12-1.81C628.62,120.97,629.56,121.05,630.66,121.14z"/>
		<path style="fill:#B0C172;" d="M305.57,203.84c-1.1,0.12-1.98,0.21-3.03,0.32c-0.05-0.63-0.1-1.19-0.16-1.91
			c1.05-0.07,1.97-0.13,3.01-0.19C305.46,202.67,305.51,203.18,305.57,203.84z"/>
		<path style="fill:#B0C172;" d="M608.16,122.11c-1.12,0-2.03,0-3.05,0c-0.07-0.55-0.14-1.06-0.22-1.7c1.08,0,2.05,0,3.17,0
			C608.09,120.89,608.12,121.4,608.16,122.11z"/>
		<path style="fill:#B0C172;" d="M300.01,204.17c-1.14,0-2.07,0-3.11,0c0-0.56,0-1.07,0-1.69c0.92,0,1.85,0,2.89,0
			C299.86,202.98,299.93,203.51,300.01,204.17z"/>
		<path style="fill:#B0C172;" d="M204.94,107.64c5.32,5.59,10.55,11.07,15.92,16.71c-5.07,3.75-9.9,7.78-16.38,8.68
			c-4.02,0.56-7.58-0.45-10.37-3.58c-2.27-2.55-2.7-5.48-1.55-8.6c0.51-1.38,1.26-2.72,2.14-3.89
			C197.54,113.19,201.34,110.46,204.94,107.64z"/>
		<path style="fill:#B0C172;" d="M205.65,99.45c-1.96-2.74-3.94-5.23-5.62-7.9c-2.27-3.61-0.93-7.14,3.1-8.53
			c2.68-0.92,5.39-0.82,7.98,0.33c3.15,1.4,4.15,4.15,2.63,7.23C211.97,94.19,209.03,96.76,205.65,99.45z"/>
		<path style="fill:#B0C172;" d="M159.75,84.9c8.01,13.29,7.69,30.54-0.86,43.51C153.73,113.76,153.98,99.45,159.75,84.9z"/>
		<path style="fill:#B0C172;" d="M158.37,130.66c-0.62,0.3-1.1,0.53-1.71,0.82c-0.45-0.99-0.87-1.9-1.34-2.91
			c0.6-0.26,1.12-0.49,1.72-0.75C157.49,128.78,157.9,129.66,158.37,130.66z"/>
	</g>
</g>
<g id="Calque_2">
</g>
<g id="Calque_3">
</g>
<g id="Calque_4">
</g>
<g id="Calque_5">
</g>
<g id="Calque_6">
</g>
<g id="Calque_7">
</g>
<g id="Calque_8">
</g>
<g id="Calque_9">
</g>
</svg>
